<?xml version="1.0" encoding="UTF-8"?>
<svg xmlns="http://www.w3.org/2000/svg" id="a" width="865.76" height="682.89" viewBox="0 0 865.76 682.89">
  <g>
    <g>
      <path d="M156.99,516.98s25.31-21.29,54.04-.57c0,0,18.04,14.03,6.01,26.06,0,0-12.7,8.69-31.41-6.01,0,0-19.88-16.23-28.65-19.48Z" fill="#7cd295"></path>
      <path d="M206.88,545.63c-5.56,0-13.02-1.86-21.66-8.65-.21-.17-19.91-16.21-28.47-19.37l-1.09-.4,.89-.75c.26-.22,26.05-21.38,54.87-.6,.42,.33,9.85,7.76,10.4,16.66,.24,3.82-1.21,7.33-4.31,10.43-.12,.09-4.06,2.69-10.64,2.69Zm-48.55-28.84c9.19,4.03,26.95,18.49,27.73,19.13,18.1,14.22,30.48,6.06,30.6,5.98,2.71-2.73,4.03-5.89,3.82-9.31-.51-8.29-9.77-15.59-9.87-15.67-24.93-17.97-47.53-3.59-52.28-.14Z" fill="#002346"></path>
    </g>
    <g>
      <path d="M129,506.57s27.9-38.95,11.19-77.03c0,0-18.71-37.42,3.34-48.78,0,0,27.4-11.36,42.1,28.73,0,0,19.71,58.52-56.63,97.08Z" fill="#7cd295"></path>
      <path d="M126.86,508.41l1.6-2.23c.28-.39,27.48-39.08,11.12-76.37-.18-.35-18.73-38.12,3.65-49.65,.44-.19,9.7-3.92,20.48,.81,9.63,4.22,17.22,13.74,22.55,28.29,.06,.17,4.94,15.05,.33,34.47-4.24,17.88-17.63,43.41-57.3,63.45l-2.45,1.24Zm25.55-128.46c-5.08,0-8.55,1.4-8.61,1.43-21.15,10.9-3.18,47.49-3,47.85,14.44,32.93-4.35,66.81-9.83,75.57,37.41-19.6,50.2-44.08,54.31-61.32,4.54-19.05-.23-33.64-.28-33.78-5.2-14.18-12.54-23.44-21.82-27.5-3.91-1.71-7.64-2.25-10.77-2.25Z" fill="#002346"></path>
    </g>
    <g>
      <path d="M58.08,394.33c-6.93,3.41-11.48,10.44-11.37,18.16,.14,9.65,6.05,22.93,34.01,30.41,0,0,32.78,8.12,36.44,32.46,0,0,9.04-30.16-6.38-58.96-5.91-11.03-15.74-19.57-27.72-23.2-7.52-2.28-16.5-3.06-24.99,1.12Z" fill="#7cd295"></path>
      <path d="M116.95,478.44l-.45-2.98c-3.54-23.6-35.61-31.83-35.93-31.91-28.27-7.57-34.38-21.06-34.52-31.06-.11-7.83,4.5-15.21,11.74-18.78h0c7.41-3.65,15.98-4.04,25.48-1.16,11.95,3.62,21.93,11.98,28.12,23.53,15.38,28.72,6.52,59.17,6.43,59.47l-.87,2.88Zm-45.67-86.43c-4.63,0-8.94,.98-12.89,2.93h0c-6.78,3.34-11.1,10.23-10.99,17.55,.14,9.53,6.07,22.43,33.51,29.77,.31,.08,30.56,7.82,36.32,30.02,1.75-8.19,5.34-32.45-7.03-55.56-6.01-11.23-15.72-19.35-27.32-22.87-4.05-1.23-7.92-1.84-11.6-1.84Z" fill="#002346"></path>
    </g>
    <g>
      <path d="M56.53,494.51c1.68,3.21,4.8,6.78,10.17,10.53,0,0,21.1,12.23,26.59,29.5,0,0-.53-28.17-16.57-49.55,0,0-1.39-2.63-4.25-4.69-9.45-6.8-21.35,3.89-15.94,14.2Z" fill="#7cd295"></path>
      <path d="M94.05,539.17l-1.4-4.42c-5.34-16.82-26.08-29-26.28-29.12-5-3.5-8.5-7.13-10.43-10.8h0c-3.02-5.75-.83-11.4,2.68-14.45,4.16-3.61,9.75-3.85,14.25-.61,2.95,2.13,4.4,4.81,4.45,4.92,15.93,21.22,16.64,49.57,16.64,49.85l.09,4.63Zm-27.89-60.33c-2.66,0-5.04,1.13-6.67,2.55-2.88,2.5-5.23,7.36-2.37,12.81h0c1.83,3.49,5.18,6.95,9.96,10.3,.76,.44,18.13,10.65,25.22,25.73-.86-8.7-4.11-28.8-16.12-44.82-.07-.11-1.42-2.61-4.11-4.55-2-1.44-4.03-2.01-5.92-2.01Z" fill="#002346"></path>
    </g>
    <g>
      <polygon points="82.07 561.19 85.62 631.01 144.88 631.01 148.89 561.85 82.07 561.19" fill="#fff"></polygon>
      <path d="M144.88,631.69h-59.26c-.36,0-.66-.28-.67-.64l-3.55-69.83c0-.19,.06-.37,.19-.5,.13-.13,.29-.21,.49-.21l66.82,.66c.18,0,.36,.08,.49,.21,.13,.13,.19,.32,.18,.5l-4.01,69.16c-.02,.36-.32,.64-.67,.64Zm-58.62-1.35h57.98l3.93-67.82-65.4-.65,3.48,68.47Z" fill="#002346"></path>
    </g>
    <path d="M128.18,561.52s-.03,0-.05,0c-.37-.03-.65-.35-.62-.72,.02-.28,2.31-27.84,21.27-40.68,11.23-7.6,25.95-8.62,43.75-3.02,.35,.11,.55,.49,.44,.85s-.49,.55-.85,.44c-17.39-5.47-31.71-4.51-42.58,2.84-18.42,12.47-20.67,39.4-20.69,39.67-.03,.35-.32,.62-.67,.62Z" fill="#002346"></path>
    <path d="M117.88,561.06c-.29,0-.56-.2-.65-.49-10.5-37.54,14.93-59.3,20.13-63.28,1.55-1.19,3.37-2.6,5.13-4.11,46.17-39.73,19.46-84.22,19.19-84.66-.2-.32-.1-.73,.22-.93,.32-.2,.73-.1,.93,.22,.28,.45,27.61,45.89-19.45,86.4-1.78,1.53-3.62,2.96-5.19,4.16-5.08,3.89-29.92,25.14-19.65,61.84,.1,.36-.11,.73-.47,.83-.06,.02-.12,.02-.18,.02Z" fill="#002346"></path>
    <path d="M113.08,561.55c-.23,0-.45-.11-.57-.32-16.33-26.32-4.15-59.84-.03-69.49,1.04-2.43,1.77-4.46,2.31-6.39,11.47-41.31-23.39-66.37-23.74-66.62-.3-.21-.38-.63-.16-.94,.21-.3,.63-.38,.94-.16,.36,.25,36,25.84,24.27,68.09-.55,1.99-1.3,4.07-2.37,6.56-4.06,9.5-16.05,42.49-.06,68.25,.2,.32,.1,.73-.22,.93-.11,.07-.23,.1-.35,.1Z" fill="#002346"></path>
    <path d="M95.9,561.13s-.02,0-.03,0c-.37-.01-.66-.33-.65-.7,1.77-43.88-23.96-61.33-24.22-61.5-.31-.2-.4-.62-.19-.93,.21-.31,.62-.4,.93-.19,.27,.17,26.63,18,24.83,62.69-.01,.36-.31,.65-.67,.65Z" fill="#002346"></path>
  </g>
  <g>
    <g>
      <polygon points="207.48 594.29 194.41 631.69 232.64 631.69 264.28 594.17 207.48 594.29" fill="#ebebeb"></polygon>
      <path d="M232.93,632.31h-39.38l13.5-38.63,58.57-.13-32.68,38.76Zm-37.64-1.24h37.07l30.59-36.28-55.03,.12-12.63,36.16Z" fill="#002346"></path>
    </g>
    <g>
      <polygon points="589.85 594.29 602.92 631.69 564.69 631.69 533.05 594.17 589.85 594.29" fill="#ebebeb"></polygon>
      <path d="M603.79,632.31h-39.38l-32.68-38.76,58.57,.13,13.49,38.63Zm-38.81-1.24h37.07l-12.63-36.16-55.03-.12,30.59,36.28Z" fill="#002346"></path>
    </g>
    <g>
      <rect x="636.63" y="544.67" width="157.65" height="12.68" fill="#fff"></rect>
      <path d="M794.9,557.97h-158.89v-13.92h158.89v13.92Zm-157.65-1.24h156.42v-11.44h-156.42v11.44Z" fill="#002346"></path>
    </g>
    <g>
      <path d="M641.13,375.72c-.28-7.42,1.24-8.75,2.11-10.12,.87-1.05,1.39-2.35,1.48-3.71,0-1.63,.36-8.74,.42-11.01,.3-2.26,.48-4.54,.53-6.82v-.23c.85-.58,1.88-.82,2.89-.67,.21,.03,.41,.07,.61,.14,.48,.14,1,.14,1.48,0l.68-.21c.44-.16,.9-.25,1.37-.25,.3,.03,.59,.11,.87,.23-.03,.25-.07,.5-.14,.74,.16,2.27,.44,4.54,.84,6.79,.17,2.29,.8,9.33,.9,10.99,.15,1.38,.73,2.67,1.66,3.71,.9,1.33,2.47,2.47,2.56,10.02,.09,7.55,.32,24.25,.32,24.25v2.47c.05,1.65-.42,3.28-1.35,4.65-.76,.79-1.83,1.21-2.93,1.16-1.14,0-2.78,.09-4.44,.12h-4.45c-1.01,.08-2.02-.23-2.82-.85-1.87-1.87-1.73-4.81-1.87-7.18,0-.01-.46-16.8-.74-24.21Z" fill="#fff"></path>
      <path d="M646.22,408.6c-1.01,0-2.03-.35-2.86-1-1.86-1.85-1.96-4.44-2.06-6.72-.01-.31-.03-.62-.04-.91,0-.17-.46-16.92-.74-24.22-.26-6.88,1.01-8.73,1.94-10.08,.09-.14,.19-.27,.27-.4,.84-1.02,1.3-2.18,1.39-3.42,0-.92,.12-3.68,.23-6.35,.08-1.89,.16-3.68,.19-4.63,.3-2.3,.48-4.57,.53-6.82v-.55s.27-.18,.27-.18c.98-.67,2.16-.94,3.33-.77,.23,.03,.47,.08,.71,.16,.35,.1,.75,.1,1.12,0l.66-.21c.48-.18,1.01-.27,1.55-.28,.43,.05,.78,.14,1.12,.29l.41,.18-.05,.45c-.03,.25-.07,.49-.13,.73,.16,2.21,.44,4.44,.83,6.62,.08,1.01,.23,2.79,.39,4.67,.23,2.66,.46,5.42,.52,6.39,.14,1.23,.66,2.39,1.5,3.33,.15,.21,.26,.36,.37,.51,.96,1.28,2.27,3.04,2.35,9.92,.09,7.55,.32,24.25,.32,24.25v2.48c.06,1.78-.45,3.51-1.45,4.99l-.07,.08c-.89,.92-2.13,1.4-3.4,1.35-.62,0-1.44,.03-2.34,.06-.66,.02-1.36,.05-2.06,.06h-4.46c-.11,0-.23,.01-.34,.01Zm.08-64.43c-.06,2.27-.24,4.55-.53,6.79-.02,.89-.1,2.69-.18,4.59-.11,2.54-.23,5.41-.23,6.34-.11,1.54-.67,2.94-1.62,4.1-.05,.08-.15,.23-.25,.38-.83,1.21-1.97,2.86-1.72,9.33,.29,7.46,.74,24.13,.74,24.22,.02,.28,.03,.59,.04,.91,.09,2.06,.18,4.39,1.64,5.85,.62,.48,1.47,.73,2.33,.67h4.5c.68-.02,1.37-.04,2.03-.06,.91-.03,1.75-.06,2.41-.06,.93,.06,1.81-.3,2.45-.94,.84-1.26,1.26-2.72,1.21-4.24v-2.49h0s-.23-16.69-.32-24.24c-.07-6.48-1.25-8.05-2.1-9.2-.12-.17-.24-.33-.35-.49-.97-1.07-1.59-2.47-1.76-3.99-.06-.99-.29-3.73-.52-6.39-.16-1.88-.31-3.66-.38-4.62-.39-2.2-.68-4.5-.84-6.79v-.1s.02-.1,.02-.1c.01-.06,.03-.11,.04-.17-.08-.02-.16-.03-.24-.04-.32,0-.71,.08-1.08,.21l-.71,.22c-.61,.17-1.24,.17-1.83,0-.19-.06-.35-.1-.52-.12-.77-.11-1.53,.03-2.2,.4Z" fill="#002346"></path>
    </g>
    <g>
      <path d="M654.1,393.27l5.6-.14-.36-16.92-5.6,.15c-4.67,.1-8.37,3.97-8.27,8.63,0,0,0,.01,0,.02h0c.11,4.67,3.98,8.36,8.65,8.26h-.02Z" fill="#023002"></path>
      <path d="M653.93,393.89c-4.91,0-8.96-3.93-9.08-8.86-.11-5.02,3.87-9.18,8.87-9.29l6.22-.16,.38,18.16-6.19,.15c-.07,0-.14,0-.2,0Zm4.8-17.04l-4.98,.13c-4.32,.09-7.76,3.68-7.67,8,.11,4.32,3.68,7.72,7.99,7.67h0s4.98-.12,4.98-.12l-.33-15.68Z" fill="#002346"></path>
    </g>
    <g>
      <path d="M646.33,344.82l6.44-.15c.63-.07,1.1-.6,1.1-1.24h0c-.03-.63-.53-1.14-1.16-1.17l-6.43,.15c-.63,.07-1.1,.6-1.1,1.24h0c.03,.63,.52,1.13,1.15,1.17Z" fill="#023002"></path>
      <path d="M646.32,345.44h-.03c-.94-.07-1.68-.82-1.72-1.76,0-.98,.7-1.78,1.65-1.88l6.48-.15c1,.06,1.75,.81,1.79,1.76,0,.98-.7,1.78-1.65,1.88l-6.52,.15Zm6.36-2.56l-6.38,.15c-.26,.03-.5,.3-.5,.61,.01,.28,.25,.53,.55,.56l6.41-.15c.26-.03,.5-.3,.5-.61-.01-.29-.26-.54-.58-.56Z" fill="#002346"></path>
    </g>
    <g>
      <path d="M771.2,375.37c-.28-7.42,1.24-8.75,2.11-10.13,.87-1.05,1.39-2.35,1.48-3.71,0-1.62,.36-8.73,.42-11,.3-2.27,.48-4.55,.53-6.83v-.22c.85-.58,1.88-.82,2.89-.67,.2,.02,.41,.06,.61,.11,.48,.15,1,.15,1.48,0,.23-.04,.46-.1,.68-.19,.44-.17,.9-.25,1.37-.25,.3,.04,.59,.11,.87,.22,.01,.26-.03,.51-.11,.75,.14,2.28,.42,4.54,.84,6.79,.15,2.27,.8,9.33,.88,10.99,.14,1.38,.72,2.68,1.66,3.71,.89,1.35,2.47,2.47,2.56,10.04,.09,7.56,.31,24.26,.31,24.26v2.47c.06,1.65-.41,3.28-1.33,4.65-.77,.78-1.83,1.2-2.93,1.15l-4.44,.14h-4.45c-1.01,.07-2.02-.24-2.82-.87-1.87-1.87-1.73-4.81-1.87-7.18,0,.05-.46-16.68-.74-24.22Z" fill="#fff"></path>
      <path d="M776.3,408.27c-1.02,0-2.04-.35-2.88-1.01-1.86-1.85-1.96-4.44-2.06-6.72-.01-.31-.03-.62-.04-.91h.02c-.03-.19-.03-.42-.04-.69-.39-13.99-.61-20.52-.72-23.55-.26-6.86,1.01-8.72,1.93-10.08,.1-.14,.19-.28,.27-.41,.84-1.02,1.31-2.18,1.39-3.42,0-.91,.12-3.67,.23-6.33,.08-1.89,.16-3.69,.19-4.65,.3-2.3,.48-4.58,.53-6.83v-.53s.27-.18,.27-.18c.98-.67,2.16-.94,3.33-.77,.21,.03,.44,.07,.67,.12,.4,.12,.78,.12,1.15,0,.27-.05,.46-.1,.64-.17,.52-.2,1.06-.3,1.6-.29,.42,.05,.76,.14,1.09,.27l.37,.15,.02,.4c.01,.29-.02,.58-.1,.86,.14,2.2,.41,4.42,.82,6.59,.08,1.1,.25,3.09,.42,5.12,.21,2.47,.43,5.03,.47,5.95,.12,1.21,.66,2.4,1.5,3.32,.16,.23,.27,.38,.39,.54,.95,1.29,2.25,3.06,2.33,9.91,.09,7.56,.31,24.26,.31,24.26v2.48c.06,1.77-.43,3.51-1.44,4.99l-.07,.09c-.89,.9-2.13,1.39-3.4,1.33l-4.39,.14h-4.47c-.11,0-.22,.01-.32,.01Zm.06-64.45c-.06,2.27-.24,4.55-.53,6.79-.02,.89-.1,2.7-.18,4.6-.11,2.65-.23,5.39-.23,6.32-.1,1.54-.66,2.95-1.63,4.1-.05,.08-.15,.23-.25,.38-.83,1.21-1.97,2.88-1.72,9.33h0c.11,3.03,.33,9.57,.72,23.56l.02,.67c.02,.29,.03,.6,.04,.92,.09,2.06,.18,4.39,1.64,5.85,.62,.49,1.47,.75,2.34,.69h4.49s4.42-.14,4.42-.14c.94,.04,1.83-.3,2.47-.93,.84-1.26,1.25-2.72,1.2-4.23v-2.49h0s-.22-16.69-.31-24.25c-.07-6.45-1.24-8.03-2.09-9.19-.13-.18-.25-.34-.37-.52-.96-1.04-1.6-2.48-1.76-3.99-.04-.93-.26-3.48-.47-5.94-.17-2.04-.34-4.04-.41-5.07-.42-2.19-.7-4.5-.84-6.79v-.12s.03-.12,.03-.12c.01-.04,.02-.07,.03-.11-.09-.02-.19-.04-.28-.05-.32,0-.71,.07-1.08,.21-.26,.1-.53,.17-.8,.22-.52,.17-1.16,.17-1.77-.02-.14-.03-.32-.07-.49-.09-.77-.11-1.54,.03-2.2,.4Z" fill="#002346"></path>
    </g>
    <g>
      <path d="M784.16,393.02l5.6-.12-.41-16.92-5.6,.12c-4.67,.11-8.36,3.98-8.27,8.65h0c.11,4.67,3.98,8.36,8.65,8.26h.02Z" fill="#023002"></path>
      <path d="M784.02,393.64h-.03s-.03-.01-.05-.01c-4.9,0-8.96-3.93-9.08-8.86-.1-5,3.88-9.16,8.87-9.28l6.22-.14,.44,18.16-6.37,.14Zm.26-1.25h.03s4.82-.09,4.82-.09l-.38-15.68-4.98,.11c-4.31,.11-7.75,3.7-7.66,8.02,.11,4.31,3.71,7.77,8.02,7.65h.16Z" fill="#002346"></path>
    </g>
    <g>
      <path d="M776.4,344.54l6.44-.15c.63-.07,1.1-.6,1.1-1.24h0c.01-.63-.49-1.16-1.12-1.17,0,0,0,0-.01,0h0l-6.43,.15c-.63,.07-1.1,.6-1.1,1.24h0c.03,.62,.51,1.12,1.12,1.17Z" fill="#023002"></path>
      <path d="M776.38,345.16h-.03c-.92-.08-1.64-.84-1.69-1.76,0-.98,.7-1.77,1.65-1.88l6.48-.15c.51,.01,.95,.2,1.28,.54s.5,.79,.49,1.26c0,.94-.7,1.73-1.65,1.84l-6.53,.15Zm6.42-2.56l-6.41,.15c-.26,.03-.5,.3-.5,.61,.01,.27,.24,.52,.53,.56l6.4-.15c.26-.03,.5-.3,.5-.61,0-.16-.05-.29-.15-.4-.1-.1-.23-.16-.37-.16Z" fill="#002346"></path>
    </g>
    <g>
      <path d="M749.78,365.46c-1.26-1.37-3.09-2.06-4.94-1.85,.08-2.87-2.18-5.25-5.05-5.33-1.48-.04-2.9,.55-3.91,1.62-.65-1.3-1.64-2.4-2.85-3.19-1.22-.8-2.76-.94-4.12-.38-1.36,.63-2.08,2.13-1.72,3.58-1.98-1.22-4.56-.6-5.78,1.37-.66,1.07-.81,2.38-.4,3.57-3.15-.94-6.46,.85-7.4,4-.32,1.09-.33,2.24-.02,3.33l37.4-1.41c.5-1.86,.04-3.85-1.21-5.31Z" fill="#fff"></path>
      <path d="M713.13,372.82l-.13-.47c-.34-1.21-.34-2.48,.02-3.68,.94-3.14,4.03-5.05,7.17-4.63-.13-1.07,.11-2.16,.69-3.09,.68-1.1,1.74-1.86,2.99-2.16,.88-.21,1.78-.17,2.61,.11,.09-1.33,.9-2.56,2.16-3.14,1.56-.65,3.32-.48,4.71,.43,1.08,.7,2,1.63,2.67,2.73,1.06-.84,2.39-1.3,3.77-1.26,2.98,.08,5.37,2.4,5.63,5.3,1.8-.05,3.57,.74,4.8,2.09v.02c1.4,1.62,1.9,3.82,1.35,5.88l-.12,.44-38.34,1.44Zm6.18-7.6c-2.29,0-4.42,1.5-5.11,3.8-.24,.82-.29,1.68-.13,2.52l36.42-1.37c.27-1.53-.16-3.11-1.17-4.3-1.12-1.21-2.77-1.83-4.41-1.65l-.7,.08,.02-.71c.07-2.52-1.93-4.63-4.45-4.7-1.3-.06-2.55,.48-3.45,1.43l-.61,.64-.4-.79c-.6-1.2-1.51-2.22-2.64-2.95-1.06-.69-2.38-.81-3.54-.33-1.07,.49-1.65,1.7-1.35,2.86l.37,1.47-1.29-.8c-.81-.5-1.78-.66-2.71-.44-.93,.22-1.72,.79-2.22,1.61-.57,.92-.69,2.03-.34,3.05l.39,1.14-1.15-.34c-.51-.15-1.02-.22-1.52-.22Z" fill="#002346"></path>
    </g>
    <g>
      <path d="M713.41,365.3c-1.83-1.45-4.29-1.82-6.46-.98-.13-2.52-2.28-4.45-4.79-4.31-.56,.03-1.12,.16-1.63,.4-.68-1.88-2.76-2.85-4.63-2.16-1.88,.68-2.85,2.76-2.16,4.63-3.26-.44-6.26,1.85-6.69,5.12-.09,.7-.06,1.41,.09,2.1l28.52,1.45c.43-2.33-.42-4.71-2.24-6.24Z" fill="#fff"></path>
      <path d="M716.15,372.19l-29.53-1.5-.1-.46c-.17-.76-.21-1.54-.1-2.32,.44-3.3,3.27-5.7,6.51-5.7-.11-.8,.01-1.61,.36-2.36,.48-1.03,1.33-1.8,2.39-2.19,1.06-.39,2.21-.34,3.24,.14,.83,.39,1.5,1.02,1.93,1.82,.41-.13,.84-.21,1.27-.23,1.38-.08,2.71,.4,3.74,1.32,.83,.75,1.39,1.72,1.61,2.79,2.18-.58,4.54-.11,6.33,1.31h.02c1.98,1.68,2.91,4.29,2.45,6.84l-.1,.53Zm-28.51-2.68l27.47,1.39c.18-1.93-.6-3.85-2.09-5.12-1.65-1.3-3.89-1.64-5.85-.88l-.8,.31-.05-.85c-.06-1.05-.52-2.02-1.3-2.72-.78-.7-1.79-1.07-2.84-1.01-.49,.03-.97,.14-1.41,.34l-.61,.27-.23-.63c-.27-.75-.82-1.35-1.55-1.69s-1.54-.38-2.29-.1c-.75,.27-1.35,.82-1.69,1.55-.34,.73-.37,1.54-.1,2.29l.35,.96-1.01-.14c-2.92-.38-5.61,1.67-6,4.58-.06,.48-.06,.96,0,1.43Z" fill="#002346"></path>
    </g>
    <g>
      <path d="M692.95,368.43c-.81-.93-2.05-1.36-3.26-1.14-1.05-1.78-3.31-2.42-5.14-1.46-.04-1.45-1.25-2.6-2.71-2.56-1.45,.04-2.6,1.25-2.56,2.71,.02,.44,.16,.87,.4,1.24-1.73-.4-3.45,.67-3.86,2.4-.05,.18-.08,.37-.09,.56l17.76,1.58c.4-1.13,.19-2.38-.54-3.32Z" fill="#fff"></path>
      <path d="M693.92,372.41l-18.83-1.68,.03-.6c.01-.23,.05-.45,.1-.67,.39-1.68,1.86-2.84,3.51-2.94-.04-.17-.06-.34-.07-.51-.05-1.81,1.37-3.31,3.16-3.36,.86,0,1.69,.29,2.33,.89,.42,.4,.72,.88,.88,1.42,1.83-.57,3.83,.09,4.97,1.66,1.28-.09,2.57,.41,3.42,1.39l.02,.03c.87,1.11,1.11,2.58,.64,3.91l-.16,.45Zm-17.46-2.8l16.57,1.48c.14-.8-.05-1.62-.56-2.27-.66-.75-1.69-1.11-2.68-.92l-.42,.08-.22-.37c-.88-1.5-2.78-2.04-4.32-1.23l-.88,.46-.03-.99c-.03-1.11-.94-2.04-2.07-1.96-1.11,.03-1.99,.96-1.96,2.07,.02,.32,.12,.64,.3,.92l.82,1.28-1.48-.34c-1.34-.31-2.69,.49-3.08,1.8Z" fill="#002346"></path>
    </g>
    <g>
      <path d="M675.82,369.47c-.87,0-1.58,.7-1.58,1.57,0,7.15,1.99,36.35,34.97,36.35h10.6c7.91,0,15.69-2.64,21.67-7.82,6.11-5.29,11.68-14.05,12.07-28.48,.02-.88-.7-1.6-1.58-1.6h-76.14Z" fill="#023002"></path>
      <path d="M719.8,408h-10.6c-14.25,0-24.48-5.32-30.39-15.81-4.7-8.33-5.2-17.57-5.19-21.16,0-1.2,.99-2.18,2.2-2.18h76.14c.59,.01,1.17,.25,1.58,.68,.41,.42,.63,.98,.62,1.57-.33,12.43-4.46,22.17-12.28,28.93-5.94,5.14-13.78,7.97-22.08,7.97Zm-43.99-37.92c-.53,0-.96,.43-.96,.95,0,3.49,.48,12.48,5.03,20.55,5.68,10.07,15.54,15.18,29.32,15.18h10.6c8,0,15.55-2.72,21.27-7.67,7.54-6.53,11.53-15.96,11.85-28.03,0-.25-.09-.49-.27-.67-.18-.19-.43-.29-.7-.29h-76.14Z" fill="#002346"></path>
    </g>
    <g>
      <path d="M712.95,359.43c.62,.85,1.78,1.11,2.69,.59,.83-.56,1.13-1.63,.73-2.53-.03-.07,.02-.13,.09-.11,.81,.19,1.67,0,2.3-.55,.74-.63,.88-1.71,.32-2.51-.53-.63-1.46-.72-2.1-.21-.08,.06-.15,.13-.21,.21,.43-.78,.38-1.74-.14-2.47-.51-.72-1.43-1.03-2.27-.77-.87,.34-1.36,1.28-1.14,2.19h0c-.87-.27-1.47,.09-1.82,.62-.57,.87-.19,2.13,.77,2.54,.18,.08,.37,.12,.57,.12,.13,0,.22,.15,.15,.26-.3,.44-.75,1.42,.05,2.62Z" fill="#fff"></path>
      <path d="M714.62,360.9c-.84,0-1.65-.39-2.17-1.11v-.02c-.75-1.1-.62-2.08-.37-2.72-.05-.02-.09-.04-.14-.05-.63-.27-1.1-.81-1.31-1.48-.2-.68-.11-1.39,.26-1.96,.4-.62,1-.96,1.68-.99,.1-.9,.69-1.71,1.56-2.06,1.14-.35,2.33,.04,3,.98,.36,.51,.54,1.1,.54,1.69,.69-.08,1.41,.18,1.88,.74,.78,1.1,.59,2.54-.4,3.38-.57,.48-1.28,.75-2.01,.77,.09,.95-.34,1.91-1.17,2.46-.44,.24-.9,.36-1.36,.36Zm-1.16-1.82c.44,.59,1.24,.77,1.89,.41,.54-.36,.75-1.1,.47-1.73l-.16-.35,.25-.38c.17-.2,.44-.29,.7-.23,.62,.15,1.28,0,1.76-.42,.5-.42,.59-1.15,.22-1.68-.28-.33-.83-.39-1.21-.08-.04,.03-.08,.08-.12,.12l-1.02-.69c.32-.58,.28-1.28-.1-1.82-.36-.5-.99-.71-1.59-.53-.54,.21-.86,.84-.72,1.45l.25,1.05-1.04-.32c-.49-.15-.86-.03-1.12,.37-.17,.26-.21,.6-.11,.92,.1,.33,.32,.58,.61,.71,.12,.05,.23,.12,.32,.07,.28,0,.56,.16,.7,.42,.14,.26,.12,.56-.04,.81-.28,.42-.5,1.09,.04,1.92Zm-.71-1.9h0Z" fill="#002346"></path>
    </g>
    <g>
      <rect x="627.17" y="424.12" width="14.31" height="173.42" fill="#fff"></rect>
      <path d="M642.1,598.16h-15.55v-174.66h15.55v174.66Zm-14.31-1.24h13.08v-172.19h-13.08v172.19Z" fill="#002346"></path>
    </g>
    <g>
      <rect x="792.11" y="424.12" width="14.31" height="173.42" fill="#fff"></rect>
      <path d="M807.04,598.16h-15.55v-174.66h15.55v174.66Zm-14.31-1.24h13.08v-172.19h-13.08v172.19Z" fill="#002346"></path>
    </g>
    <g>
      <rect x="611.19" y="407.37" width="208.53" height="24.17" fill="#ebebeb"></rect>
      <path d="M820.34,432.16h-209.77v-25.41h209.77v25.41Zm-208.53-1.24h207.3v-22.94h-207.3v22.94Z" fill="#002346"></path>
    </g>
    <g>
      <rect x="600.5" y="122.25" width="59.95" height="121.38" fill="#fbe493"></rect>
      <path d="M661.07,244.24h-61.19V121.63h61.19v122.61Zm-59.95-1.24h58.72V122.87h-58.72v120.14Z" fill="#002346"></path>
    </g>
    <circle cx="630.73" cy="159.7" r="20.21" fill="#002346"></circle>
    <g>
      <circle cx="630.73" cy="159.7" r="20.21" fill="#ebebeb"></circle>
      <path d="M630.73,180.52c-11.48,0-20.82-9.34-20.82-20.83s9.34-20.83,20.82-20.83,20.82,9.34,20.82,20.83-9.34,20.83-20.82,20.83Zm0-40.41c-10.8,0-19.59,8.79-19.59,19.59s8.79,19.59,19.59,19.59,19.59-8.79,19.59-19.59-8.79-19.59-19.59-19.59Z" fill="#002346"></path>
    </g>
    <g>
      <circle cx="630.74" cy="159.72" r="15.75" fill="#fff"></circle>
      <path d="M630.74,176.08c-9.02,0-16.36-7.34-16.36-16.36s7.34-16.36,16.36-16.36,16.36,7.34,16.36,16.36-7.34,16.36-16.36,16.36Zm0-31.49c-8.34,0-15.13,6.79-15.13,15.13s6.79,15.13,15.13,15.13,15.13-6.79,15.13-15.13-6.79-15.13-15.13-15.13Z" fill="#002346"></path>
    </g>
    <g>
      <path d="M625.97,159.77c0-2.62,2.11-4.75,4.73-4.76,2.62,0,4.75,2.11,4.76,4.73,0,2.62-2.11,4.75-4.73,4.76h-.01c-2.62,0-4.74-2.12-4.75-4.73Z" fill="#fff"></path>
      <path d="M630.73,165.12c-2.96,0-5.37-2.4-5.38-5.35h0c0-2.96,2.39-5.37,5.35-5.38h.01c1.43,0,2.77,.55,3.78,1.56,1.02,1.01,1.58,2.36,1.58,3.79s-.55,2.78-1.56,3.8c-1.01,1.02-2.36,1.58-3.79,1.58Zm-4.14-5.35c0,2.27,1.86,4.12,4.13,4.12,1.11,0,2.15-.43,2.93-1.22,.78-.78,1.2-1.82,1.2-2.92,0-2.27-1.86-4.12-4.13-4.12h-.01c-2.28,0-4.12,1.86-4.12,4.14Z" fill="#002346"></path>
    </g>
    <circle cx="630.73" cy="209.35" r="20.21" fill="#002346"></circle>
    <g>
      <circle cx="630.73" cy="209.35" r="20.21" fill="#ebebeb"></circle>
      <path d="M630.73,230.18c-11.48,0-20.82-9.34-20.82-20.83s9.34-20.83,20.82-20.83,20.82,9.34,20.82,20.83-9.34,20.83-20.82,20.83Zm0-40.41c-10.8,0-19.59,8.79-19.59,19.59s8.79,19.59,19.59,19.59,19.59-8.79,19.59-19.59-8.79-19.59-19.59-19.59Z" fill="#002346"></path>
    </g>
    <g>
      <circle cx="630.74" cy="209.38" r="15.75" fill="#fff"></circle>
      <path d="M630.74,225.74c-9.02,0-16.36-7.34-16.36-16.36s7.34-16.36,16.36-16.36,16.36,7.34,16.36,16.36-7.34,16.36-16.36,16.36Zm0-31.49c-8.34,0-15.13,6.79-15.13,15.13s6.79,15.13,15.13,15.13,15.13-6.79,15.13-15.13-6.79-15.13-15.13-15.13Z" fill="#002346"></path>
    </g>
    <g>
      <path d="M625.97,209.43c0-2.62,2.11-4.75,4.73-4.76,2.62,0,4.75,2.11,4.76,4.73,0,2.62-2.11,4.75-4.73,4.76h-.01c-2.62,0-4.74-2.12-4.75-4.73Z" fill="#fff"></path>
      <path d="M630.73,214.78c-2.96,0-5.37-2.4-5.38-5.35,0-2.96,2.39-5.37,5.35-5.38h.01c1.43,0,2.77,.55,3.78,1.56,1.02,1.01,1.58,2.36,1.58,3.79,0,2.96-2.39,5.37-5.35,5.38Zm-4.14-5.35c0,2.27,1.86,4.12,4.13,4.12,2.29,0,4.13-1.86,4.13-4.14,0-2.27-1.86-4.12-4.13-4.12h-.01c-2.28,0-4.12,1.86-4.12,4.14Z" fill="#002346"></path>
    </g>
    <g>
      <rect x="147.03" y="122.25" width="59.95" height="121.38" fill="#fbe493"></rect>
      <path d="M207.6,244.24h-61.19V121.63h61.19v122.61Zm-59.95-1.24h58.72V122.87h-58.72v120.14Z" fill="#002346"></path>
    </g>
    <circle cx="177.26" cy="159.7" r="20.21" fill="#002346"></circle>
    <g>
      <circle cx="177.26" cy="159.7" r="20.21" fill="#ebebeb"></circle>
      <path d="M177.26,180.52c-11.48,0-20.82-9.34-20.82-20.83s9.34-20.83,20.82-20.83,20.82,9.34,20.82,20.83-9.34,20.83-20.82,20.83Zm0-40.41c-10.8,0-19.59,8.79-19.59,19.59s8.79,19.59,19.59,19.59,19.59-8.79,19.59-19.59-8.79-19.59-19.59-19.59Z" fill="#002346"></path>
    </g>
    <g>
      <circle cx="177.27" cy="159.72" r="15.75" fill="#fff"></circle>
      <path d="M177.27,176.08c-9.02,0-16.36-7.34-16.36-16.36s7.34-16.36,16.36-16.36,16.36,7.34,16.36,16.36-7.34,16.36-16.36,16.36Zm0-31.49c-8.34,0-15.13,6.79-15.13,15.13s6.79,15.13,15.13,15.13,15.13-6.79,15.13-15.13-6.79-15.13-15.13-15.13Z" fill="#002346"></path>
    </g>
    <g>
      <path d="M172.5,159.77c0-2.62,2.11-4.75,4.73-4.76,2.62,0,4.75,2.11,4.76,4.73,0,2.62-2.11,4.75-4.73,4.76h-.01c-2.62,0-4.74-2.12-4.75-4.73Z" fill="#fff"></path>
      <path d="M177.26,165.12c-2.96,0-5.37-2.4-5.38-5.35h0c0-1.43,.55-2.78,1.56-3.8,1.01-1.02,2.36-1.58,3.79-1.58h.01c1.43,0,2.77,.55,3.78,1.56,1.02,1.01,1.58,2.36,1.58,3.79s-.55,2.78-1.56,3.8c-1.01,1.02-2.36,1.58-3.79,1.58Zm-4.14-5.35c0,2.27,1.86,4.12,4.13,4.12,1.11,0,2.15-.43,2.93-1.22,.78-.78,1.2-1.82,1.2-2.92,0-2.27-1.86-4.12-4.13-4.12h-.01c-2.28,0-4.12,1.86-4.12,4.14Z" fill="#002346"></path>
    </g>
    <g>
      <circle cx="177.26" cy="209.35" r="20.21" fill="#ebebeb"></circle>
      <path d="M177.26,230.18c-11.48,0-20.82-9.34-20.82-20.83s9.34-20.83,20.82-20.83,20.82,9.34,20.82,20.83-9.34,20.83-20.82,20.83Zm0-40.41c-10.8,0-19.59,8.79-19.59,19.59s8.79,19.59,19.59,19.59,19.59-8.79,19.59-19.59-8.79-19.59-19.59-19.59Z" fill="#002346"></path>
    </g>
    <g>
      <circle cx="177.27" cy="209.38" r="15.75" fill="#fff"></circle>
      <path d="M177.27,225.74c-9.02,0-16.36-7.34-16.36-16.36s7.34-16.36,16.36-16.36,16.36,7.34,16.36,16.36-7.34,16.36-16.36,16.36Zm0-31.49c-8.34,0-15.13,6.79-15.13,15.13s6.79,15.13,15.13,15.13,15.13-6.79,15.13-15.13-6.79-15.13-15.13-15.13Z" fill="#002346"></path>
    </g>
    <g>
      <path d="M172.5,209.43c0-2.62,2.11-4.75,4.73-4.76,2.62,0,4.75,2.11,4.76,4.73,0,2.62-2.11,4.75-4.73,4.76h-.01c-2.62,0-4.74-2.12-4.75-4.73Z" fill="#fff"></path>
      <path d="M177.26,214.78c-2.96,0-5.37-2.4-5.38-5.35,0-1.43,.55-2.78,1.56-3.8s2.36-1.58,3.79-1.58h.01c1.43,0,2.77,.55,3.78,1.56,1.02,1.01,1.58,2.36,1.58,3.79,0,2.96-2.39,5.37-5.35,5.38Zm-4.14-5.35c0,2.27,1.86,4.12,4.13,4.12,2.29,0,4.13-1.86,4.13-4.14,0-2.27-1.86-4.12-4.13-4.12h-.01c-2.28,0-4.12,1.86-4.12,4.14Z" fill="#002346"></path>
    </g>
    <g>
      <rect x="227.42" y="53.35" width="357.75" height="249.25" fill="#002346"></rect>
      <path d="M585.79,303.21H226.81V52.73h358.98v250.48Zm-357.75-1.24h356.51V53.96H228.04v248.01Z" fill="#002346"></path>
    </g>
    <rect x="235.22" y="59.72" width="342.17" height="235.38" fill="#f5f5f5"></rect>
    <path d="M357.91,59.72c.44,.07,55.06,117.68,55.06,117.68l-.14-117.68h-54.92Z" fill="#e0e0e0"></path>
    <g>
      <path d="M416.58,148.44v55.34h-7.85v-48.41h-12.48v-6.93h20.33Z" fill="#fbe493"></path>
      <path d="M417.2,204.4h-9.08v-48.41h-12.48v-8.17h21.57v56.58Zm-7.85-1.24h6.61v-54.11h-19.09v5.7h12.48v48.41Z" fill="#002346"></path>
    </g>
    <g>
      <polygon points="477.99 352.52 477.99 338.16 487.14 334.23 488.45 353.83 477.99 352.52" fill="#f2b3c1"></polygon>
      <path d="M489.1,354.53l-11.72-1.47v-15.3l10.3-4.43,1.42,21.19Zm-10.5-2.54l9.19,1.15-1.2-18.01-7.99,3.43v13.42Z" fill="#002346"></path>
    </g>
    <g>
      <path d="M450.54,378.66l2.62-20.91s-1.03-13.24,19.77-9.89l45.04,3.91s4.49-.56,4.49,15.13v17.91l-36.6,10.93-35.32-17.07Z" fill="#fbe493"></path>
      <path d="M485.81,396.39l-35.94-17.37,2.67-21.29c-.03-.59-.1-4.56,3.21-7.61,3.47-3.19,9.28-4.16,17.29-2.87l44.95,3.9c.25,.01,.96,.05,1.76,.75,1.52,1.34,3.33,5.04,3.33,14.99v18.37l-37.27,11.13Zm-34.6-18.09l34.71,16.77,35.92-10.72v-17.45c0-9.8-1.77-12.97-2.83-13.98-.56-.54-.97-.53-.99-.53h-.04s-.07,0-.07,0l-45.04-3.91c-7.64-1.23-13.11-.37-16.28,2.54-3.07,2.81-2.83,6.65-2.82,6.69v.06s0,.06,0,.06l-2.56,20.47Z" fill="#002346"></path>
    </g>
    <g>
      <path d="M249.15,375.82s.85-20.85,4.42-24.04c3.57-3.19,42.84-17.55,42.84-17.55,0,0,24.97-1.31,42.5,9.8,0,0,25.47,8.48,28.69,15.02,0,0,3.23,19.47,3.23,25.95,0,.05-96.99-14.65-121.67-9.18Z" fill="#023002"></path>
      <path d="M370.88,385.61c-.22,0-.61-.06-1.45-.18-22.82-3.3-98.91-13.7-120.14-9.01l-.78,.17,.03-.8c.09-2.16,.97-21.21,4.63-24.47,3.62-3.23,41.43-17.08,43.04-17.67l.18-.04c.25-.01,25.3-1.19,42.8,9.86,1.79,.6,25.74,8.72,28.97,15.31l.05,.17c.13,.8,3.23,19.59,3.23,26.05v.28l-.21,.18c-.1,.09-.16,.14-.36,.14Zm-105.56-11.61c30.9,0,85.54,7.49,104.29,10.21,.23,.03,.42,.06,.59,.09-.2-6.72-2.96-23.63-3.19-25.05-3.23-6.23-28.03-14.54-28.29-14.62l-.14-.06c-16.65-10.55-40.39-9.78-42.05-9.71-13.57,4.96-39.8,14.94-42.55,17.4-2.65,2.37-3.88,16.57-4.18,22.81,3.82-.74,9.17-1.05,15.51-1.05Z" fill="#002346"></path>
    </g>
    <path d="M587.29,551.47H204.65l-.07-.2c-4.52-12.19-8.79-37.14-12.71-74.16l-.22-2.04,.81,1.88c.06,.14,6.24,14.42,18.23,29.14,11.05,13.57,29.45,30.3,54.31,32.99,.45,.06,45.07,5.89,100.61,7.83,51.25,1.78,122.52,.52,171.08-15.65,.41-.13,40.66-12.99,59.32-60.27l.85-2.16-.26,2.31c-4.37,39.1-9.25,79.65-9.29,80.05l-.03,.27Zm-382.2-.62h381.65c.43-3.55,4.89-40.84,9.01-77.55-19.11,45.86-58.46,58.43-58.86,58.55-48.64,16.19-120,17.46-171.3,15.68-55.57-1.93-100.21-7.77-100.66-7.83-25.07-2.71-43.6-19.57-54.73-33.23-9.6-11.79-15.5-23.3-17.52-27.55,3.83,35.73,8,59.92,12.4,71.93Z" fill="red"></path>
    <g>
      <path d="M194.41,562.92h409.08v18.3c0,7.21-5.85,13.06-13.06,13.06H207.48c-7.21,0-13.06-5.85-13.06-13.06h0v-18.3h0Z" fill="#fff"></path>
      <path d="M590.43,594.91H207.48c-7.54,0-13.68-6.14-13.68-13.68v-18.92h410.32v18.92c0,7.54-6.14,13.68-13.68,13.68Zm-395.4-31.37v17.69c0,6.86,5.58,12.45,12.45,12.45h382.96c6.86,0,12.45-5.58,12.45-12.45v-17.69H195.03Z" fill="#002346"></path>
    </g>
    <g>
      <path d="M194.41,571.6s-27.45,3.08-36.6-38.73l-11.77-36.6s-19.23-51.57,42.02-64.27l412.22,2.47s43.48,2.66,43.19,42.02c-.08,4.6-.74,9.16-1.97,13.59l-11.85,44.22c-1.26,4.72-3.11,9.25-5.51,13.5-1.29,2.27-2.87,4.79-4.72,7.3-6.33,8.58-16.48,13.5-27.14,13.58l-397.89,2.91Z" fill="#ebebeb"></path>
      <path d="M193.35,572.25c-5.34,0-28.04-2.24-36.13-39.26l-11.75-36.54c-.07-.19-7.79-21.43,2.44-39.95,6.96-12.6,20.43-21.05,40.04-25.11h.13s412.22,2.46,412.22,2.46c.47,.03,44.09,3.15,43.81,42.64-.08,4.65-.75,9.28-1.99,13.75l-11.85,44.22c-1.27,4.76-3.14,9.35-5.57,13.64-1.5,2.64-3.1,5.12-4.76,7.37-6.32,8.58-16.65,13.75-27.63,13.83l-397.87,2.91c-.12,0-.5,.04-1.1,.04Zm-5.21-139.63c-19.2,3.99-32.37,12.23-39.14,24.48-9.96,18.02-2.44,38.75-2.36,38.96l11.78,36.62c8.93,40.79,35.67,38.33,35.94,38.31h.06s397.89-2.91,397.89-2.91c10.59-.08,20.55-5.06,26.64-13.33,1.63-2.21,3.21-4.65,4.68-7.24,2.38-4.2,4.21-8.69,5.45-13.35l11.85-44.22c1.22-4.38,1.87-8.9,1.94-13.44,.28-38.33-42.19-41.37-42.61-41.39l-412.12-2.47Z" fill="#002346"></path>
    </g>
    <g>
      <rect x="454.18" y="276.85" width="32.13" height="60.56" rx="16.07" ry="16.07" fill="#f2b3c1"></rect>
      <path d="M470.24,338.01c-9.19,0-16.67-7.48-16.67-16.67v-28.43c0-9.19,7.48-16.67,16.67-16.67s16.67,7.48,16.67,16.67v28.43c0,9.19-7.48,16.67-16.67,16.67Zm0-60.56c-8.52,0-15.46,6.93-15.46,15.46v28.43c0,8.52,6.94,15.46,15.46,15.46s15.46-6.94,15.46-15.46v-28.43c0-8.52-6.93-15.46-15.46-15.46Z" fill="#002346"></path>
    </g>
    <g>
      <path d="M462.83,280.16s-14.93,3.1-16.24,14.83c-.47,6.34,2.53,12.44,7.84,15.93,0,0-13.06-2.85-9.15-22.46,0,0,0-13.08,28.76-22.25,0,0,31.65-11.75,38.04,10.46,0,0,10.31,67.97,3.77,91.46,0,0-2.61,14.37-5.23,16.98,0,0-24.83,6.54-27.44-11.75-1.56-11.27-1.56-22.7,0-33.98,0,0-1.31,10.44-10.46,10.44,0,0,1.05-14.83,1.24-25.37,.04-2.06-.04-4.13-.23-6.18l-3.71-38.97s-5.23,9.64,0,29.66c.12,.01-10.52-8.38-7.19-28.81Z" fill="#002346"></path>
      <path d="M501.09,386.88c-4.08,0-8.72-.69-12.38-3.12-3.42-2.27-5.48-5.74-6.14-10.31-1.32-9.48-1.53-19.07-.64-28.59-1.55,2.78-4.33,5.59-9.2,5.59h-.66l.05-.66c.01-.15,1.05-14.94,1.23-25.34,.04-2.03-.04-4.09-.23-6.11l-3.45-36.3c-1.17,3.98-2.67,12.85,.95,26.74,.05,.12,.05,.28-.02,.45l-.72,1.58-.4-1.52c-2.57-2.45-9.89-11.08-7.39-28.3-3.16,.88-13.81,4.55-14.87,14.07-.45,6.09,2.44,11.98,7.56,15.35l2.78,1.83-3.25-.71c-.14-.03-13.59-3.21-9.63-23.13,.03-1.15,1.07-13.8,29.19-22.77,.7-.26,17.93-6.54,29.64-.63,4.56,2.3,7.65,6.17,9.19,11.5,.44,2.86,10.27,68.45,3.77,91.79-.26,1.43-2.71,14.58-5.39,17.25l-.12,.12-.16,.04c-.31,.08-4.56,1.17-9.69,1.17Zm-17.3-47.41h0c-1.56,11.22-1.56,22.59,0,33.81,.6,4.21,2.48,7.39,5.59,9.45,7.33,4.87,19.34,2.2,20.91,1.83,2.01-2.29,4.24-12.66,4.95-16.54,6.44-23.14-3.67-90.58-3.77-91.25-1.42-4.91-4.3-8.52-8.54-10.66-11.23-5.67-28.5,.63-28.68,.69-28.03,8.94-28.36,21.54-28.36,21.67v.12c-2.27,11.3,1.17,16.84,4.36,19.47-3.06-3.59-4.65-8.29-4.29-13.11,1.35-12.06,16.58-15.36,16.73-15.39l.88-.18-.14,.89c-2.38,14.62,2.42,22.95,5.42,26.57-4.28-18.47,.41-27.43,.62-27.82l.97-1.78,3.9,40.99c.2,2.07,.28,4.17,.24,6.25-.16,9.16-.98,21.69-1.19,24.72,7.65-.48,9.08-9.2,9.17-9.84,0-.02,0-.03,0-.05l1.23,.16s0,0,0,0Z" fill="#002346"></path>
    </g>
    <g>
      <rect x="325.74" y="256.56" width="37.08" height="66.23" rx="18.54" ry="18.54" transform="translate(39.9 -41.67) rotate(7.35)" fill="#f2b3c1"></rect>
      <path d="M342.43,323.28c-.81,0-1.64-.05-2.46-.16h0c-10.47-1.35-17.89-10.97-16.54-21.44l3.73-28.91c1.35-10.47,10.97-17.9,21.44-16.54,10.47,1.35,17.89,10.97,16.54,21.44l-3.73,28.91c-1.24,9.64-9.5,16.7-18.98,16.7Zm-2.31-1.36c9.81,1.26,18.81-5.68,20.08-15.49l3.73-28.91c1.27-9.81-5.68-18.81-15.49-20.08-9.81-1.26-18.81,5.68-20.08,15.49l-3.73,28.91c-1.27,9.8,5.68,18.81,15.49,20.08h0Z" fill="#002346"></path>
    </g>
    <g opacity=".2">
      <path d="M363.02,261.2c-.08,1.56-.26,3.1-.54,4.63h0c-3.14-5.64-20.37-15.25-20.37-15.25,0-2.55,11.59,1.66,12.15,1.84h0l6.66,4.56c1.39,.94,2.18,2.54,2.1,4.21Z"></path>
    </g>
    <g>
      <path d="M335.27,318.93v15.3c-8.12-3.93-30.68-7.67-30.68-7.67l5.4-19.77s17.06-1.95,26.86-6.54l-1.58,18.69Z" fill="#f2b3c1"></path>
      <path d="M335.88,335.2l-.87-.42c-7.95-3.85-30.29-7.58-30.51-7.62l-.66-.11,5.69-20.82,.41-.05c.17-.02,17.07-2,26.67-6.49l.95-.45-1.67,19.71v16.25Zm-30.52-9.13c3.71,.64,21.38,3.78,29.3,7.22v-14.41s1.5-17.66,1.5-17.66c-9.01,3.89-23.11,5.79-25.68,6.11l-5.12,18.73Z" fill="#002346"></path>
    </g>
    <g>
      <path d="M363.02,261.2c-.08,1.56-.26,3.1-.54,4.63-.51,2.66-1.32,5.25-2.4,7.74,0,0-.58-1.71-1.43-5.15,0,0-3.11-.84-3.97,8.31,0,0-.59,3.71-1.57,7.27-.6,2.09-.97,4.23-1.1,6.4-.18,1.99,0,4,.53,5.93,0,0-3.46,2.62-7.19-5.88l-4.44-.27c.03,2.9-.3,6.08-.79,9.18-1.86,11.75-15.3,17.6-25.22,11.03-.09-.06-.17-.12-.26-.17-3-2.01-5.27-4.93-6.44-8.34-2.58-7.5-7.04-22.09-7.1-33.23-.02-3.25,1.91-6.19,4.84-7.6l26.99-13.05s6.18-5.23,14.83,0l6.48,4.45h0l6.66,4.56c1.39,.94,2.19,2.54,2.11,4.21Z" fill="#002346"></path>
      <path d="M323.95,313.73c-3.29,0-6.55-.96-9.39-2.84l-.26-.17c-3.15-2.11-5.46-5.1-6.68-8.66-2.64-7.69-7.08-22.25-7.13-33.43-.02-3.43,2.02-6.63,5.18-8.16l26.93-13.02c.73-.56,7.04-5.1,15.48,0l13.17,9.03c1.55,1.05,2.47,2.88,2.38,4.75h0c-.08,1.58-.26,3.17-.55,4.72-.52,2.7-1.34,5.35-2.44,7.87l-.64,1.46-.51-1.51c-.02-.07-.54-1.61-1.33-4.71-.12,.04-.28,.11-.45,.24-.7,.53-1.94,2.2-2.43,7.48-.01,.08-.61,3.82-1.59,7.37-.59,2.05-.95,4.16-1.08,6.28-.17,1.94,0,3.87,.51,5.73l.11,.4-.33,.25s-1.06,.79-2.59,.39c-1.94-.51-3.76-2.58-5.39-6.17l-3.41-.21c-.02,2.51-.29,5.41-.8,8.62-.91,5.71-4.61,10.51-9.92,12.84-2.21,.97-4.54,1.45-6.87,1.45Zm16.1-67.48c-4.03,0-6.56,2.07-6.72,2.2l-.13,.08-26.99,13.05c-2.74,1.32-4.5,4.09-4.49,7.04,.05,11,4.45,25.42,7.06,33.03,1.13,3.3,3.28,6.07,6.2,8.03l.26,.17c4.5,2.98,10.13,3.46,15.07,1.29,4.92-2.16,8.35-6.61,9.19-11.9,.54-3.43,.81-6.49,.78-9.08v-.66s5.47,.33,5.47,.33l.15,.35c1.86,4.25,3.57,5.5,4.68,5.81,.53,.15,.95,.08,1.22,0-.45-1.85-.59-3.75-.42-5.66,.13-2.19,.51-4.39,1.12-6.52,.95-3.48,1.55-7.16,1.55-7.19,.41-4.45,1.43-7.28,3.01-8.38,.89-.62,1.64-.44,1.73-.42l.35,.09,.09,.35c.36,1.47,.68,2.62,.92,3.46,.74-1.95,1.31-3.96,1.71-6.01,.28-1.49,.46-3.03,.53-4.55,.07-1.45-.64-2.86-1.84-3.67l-13.14-9.01c-2.78-1.68-5.27-2.23-7.36-2.23Z" fill="#002346"></path>
    </g>
    <g>
      <ellipse cx="342.13" cy="293.85" rx="7.13" ry="4.57" transform="translate(28 617.46) rotate(-86.51)" fill="#f2b3c1"></ellipse>
      <path d="M341.89,301.58c-.07,0-.15,0-.22,0-1.43-.09-2.71-1.01-3.59-2.59-.84-1.5-1.23-3.43-1.11-5.45h0c.12-2.02,.75-3.89,1.76-5.27,1.07-1.46,2.45-2.22,3.88-2.14,1.43,.09,2.71,1.01,3.59,2.59,.84,1.5,1.23,3.43,1.11,5.45-.26,4.22-2.62,7.42-5.42,7.42Zm-3.71-7.97c-.11,1.79,.23,3.49,.95,4.78,.68,1.21,1.6,1.91,2.61,1.97,2.15,.14,4.14-2.74,4.35-6.27,.11-1.79-.23-3.48-.95-4.78-.68-1.21-1.6-1.91-2.61-1.97-1.01-.06-2.01,.52-2.83,1.64-.88,1.2-1.42,2.84-1.53,4.63h0Z" fill="#002346"></path>
    </g>
    <g>
      <path d="M296.41,334.23l.4-1.42c1.16-4.05,5.12-6.64,9.29-6.05,7.9,1.11,20.43,3.35,28.51,7.14,3.78,1.78,5.6,6.15,4.34,10.13h0s-22.88-8.5-42.55-9.8Z" fill="#002346"></path>
      <path d="M339.36,344.84l-.61-.23c-.23-.08-23.02-8.49-42.38-9.76l-.76-.05,.61-2.15c1.24-4.33,5.52-7.12,9.97-6.5,8.71,1.22,20.75,3.47,28.69,7.19,4.02,1.89,6.03,6.56,4.67,10.88l-.2,.62Zm-42.14-11.17c17.54,1.32,37.54,8.2,41.33,9.55,.81-3.54-.91-7.23-4.18-8.76-8.21-3.86-21.28-6.1-28.34-7.09-3.85-.55-7.54,1.87-8.61,5.61l-.2,.69Z" fill="#002346"></path>
    </g>
    <g>
      <path d="M602.17,409.92c-.56,5.57-1.03,11.15-1.34,16.74-.38,7.04-1.61,18.17-4.55,44.45-.27,2.43-.55,4.87-.82,7.3-4.68,41.44-39.73,72.75-81.43,72.75h-240.29c-41.86,0-77.04-31.54-81.47-73.17-.03-.3-.06-.61-.1-.91-4.94-46.17-7.42-85.85-7.42-85.85h0c0-5.06,3.6-9.41,8.57-10.32,116.93-21.57,209.03,10.1,209.03,10.1,72.86-31.45,165.7-4.72,193.08,4.46,4.63,1.55,7.56,6.11,7.07,10.98l-.35,3.48Z" fill="#fff"></path>
      <path d="M514.03,551.78h-240.29c-42.32,0-77.61-31.69-82.09-73.72l-.1-.92c-4.89-45.66-7.39-85.47-7.42-85.87,0-5.4,3.81-10,9.08-10.97,112.93-20.84,203.91,8.32,209.12,10.05,73.08-31.41,166.42-4.48,193.31,4.53,4.94,1.65,8.02,6.43,7.49,11.62l-.35,3.48c-.62,6.17-1.06,11.63-1.34,16.71-.39,7.12-1.68,18.78-4.56,44.48l-.82,7.3c-4.72,41.79-39.99,73.3-82.04,73.3Zm-237.93-177.71c-25.3,0-53.23,2.02-82.66,7.45-4.68,.86-8.08,4.95-8.07,9.71,.02,.36,2.53,40.15,7.41,85.78l.1,.92c4.41,41.4,39.17,72.61,80.86,72.61h240.29c41.42,0,76.17-31.04,80.81-72.2l.82-7.3c2.88-25.68,4.17-37.33,4.55-44.41,.28-5.1,.72-10.59,1.34-16.77l.35-3.48c.47-4.61-2.27-8.86-6.65-10.33-26.81-8.98-119.94-35.86-192.64-4.48l-.22,.09-.23-.08c-.69-.24-52.15-17.53-126.06-17.53Z" fill="#002346"></path>
    </g>
    <g>
      <path d="M426.99,379.96s-37.63,24.83-47.57,0c0,0-3.4-10.44,7.06-18.29,0,0,3.58-3,2.47-9.01-.3-1.42-.9-2.76-1.76-3.93-1.63-2.39-4.33-8.27,.59-17.12,0,0-8.91-2.68-8.34-10.96,.2-2.11,.81-4.15,1.8-6.02,0,0-1.31-20.91,3.92-20.91,0,0,6.08,2.61,10.22,13.06,.74-.56,1.58-.98,2.47-1.24,2.22-.72,5.96-1.1,11.12,1.24,0,0,6.28-10.46,10.21-9.15,.66,5.71,.31,11.5-1.01,17.09-.18,.75-.16,1.52,.07,2.25,.73,2.32,1.96,8.03-1.76,12.17-.81,.91-1.38,2.04-1.35,3.26,.07,2.82,1.07,5.57,2.87,7.79,0,0,22.07,28.02,8.97,39.77Z" fill="#023002"></path>
      <path d="M396.22,391.62c-2.29,0-4.51-.28-6.6-.94-4.99-1.56-8.61-5.09-10.77-10.5-.05-.15-3.43-10.99,7.26-19.01,.11-.09,3.26-2.85,2.24-8.4-.28-1.33-.83-2.57-1.65-3.68-1.88-2.75-4.29-8.57,.21-17.15-2.17-.88-8.57-4.09-8.08-11.34,.2-2.16,.81-4.21,1.79-6.11-.11-1.89-.85-16.83,2.59-20.48,.57-.6,1.23-.91,1.96-.91l.24,.05c.25,.11,6.09,2.71,10.26,12.69,.63-.38,1.3-.68,2.02-.89,2.25-.72,5.98-1.12,11.05,1.05,1.4-2.24,6.74-10.25,10.65-8.95l.37,.12,.05,.39c.67,5.8,.32,11.62-1.02,17.3-.15,.65-.13,1.31,.06,1.92,.74,2.38,2.05,8.38-1.89,12.77-.56,.62-1.22,1.62-1.19,2.83,.07,2.69,1.04,5.33,2.74,7.42,.92,1.17,22.28,28.62,8.91,40.62l-.07,.06c-.79,.52-17.08,11.15-31.11,11.15Zm-11.18-97.28c-.33,.03-.64,.2-.93,.51-2.67,2.85-2.53,15.21-2.24,19.73v.17s-.07,.15-.07,.15c-.96,1.81-1.54,3.75-1.74,5.79-.53,7.68,7.82,10.29,7.91,10.31l.74,.22-.37,.67c-4.64,8.34-2.38,13.9-.62,16.47,.91,1.23,1.53,2.64,1.85,4.15,1.17,6.3-2.52,9.48-2.68,9.61-9.99,7.5-7,17.22-6.87,17.63,2,5,5.37,8.29,9.98,9.74,14.07,4.41,35.58-9.36,36.62-10.04,12.45-11.25-8.86-38.62-9.08-38.9-1.86-2.3-2.93-5.2-3.01-8.16-.04-1.61,.8-2.89,1.51-3.69,3.51-3.91,2.31-9.4,1.63-11.57-.26-.82-.29-1.71-.08-2.57,1.28-5.4,1.63-10.92,1.05-16.43-2.59-.2-6.89,5.26-9.11,8.95l-.28,.47-.5-.23c-4.97-2.25-8.55-1.9-10.68-1.21-.84,.24-1.61,.63-2.29,1.14l-.65,.49-.3-.75c-3.67-9.26-8.92-12.24-9.77-12.67Z" fill="#002346"></path>
    </g>
    <g>
      <path d="M397.84,305.59c-.44,24.94-18.35,15.07-18.35,15.07h0c.2-2.11,.81-4.15,1.8-6.02,0,0-1.31-20.91,3.92-20.91,0,0,6.08,2.61,10.22,13.06,.73-.54,1.54-.95,2.41-1.2Z" fill="#002346"></path>
      <path d="M386.91,323.21c-4,0-7.51-1.9-7.72-2.01l-.36-.2,.04-.4c.2-2.14,.81-4.19,1.79-6.09-.11-1.89-.85-16.83,2.59-20.49,.57-.6,1.23-.91,1.96-.91l.24,.05c.25,.11,6.09,2.71,10.26,12.7,.61-.37,1.26-.65,1.95-.86l.81-.24v.84c-.17,8.45-2.32,13.94-6.42,16.31-1.66,.96-3.44,1.3-5.14,1.3Zm-6.76-2.91c1.45,.7,6.98,3.04,11.29,.54,3.56-2.06,5.49-6.89,5.76-14.36-.5,.21-.96,.48-1.4,.81l-.65,.48-.3-.75c-3.68-9.3-8.92-12.24-9.77-12.67-.33,.03-.64,.2-.93,.51-2.67,2.85-2.53,15.21-2.24,19.74v.17s-.07,.15-.07,.15c-.89,1.68-1.46,3.49-1.69,5.37Z" fill="#002346"></path>
    </g>
    <g>
      <path d="M423.28,378.72c-2.2,.69-4.21,1.86-5.91,3.41-3.62,3.06-7.93,5.19-12.57,6.18-2.53,.51-4.81,.56-7.33,.07-3.28-.65-6.29-2.23-8.85-4.38-4.8-4.06-15.04-11.61-19.58-6.48-.57,.64-.92,1.43-1.12,2.26-.87,3.59-1.47,13.85,19.37,15.93,0,0,26.71,2.31,38.21-13.43,.73-1.01,.5-2.43-.51-3.16-.5-.36-1.12-.5-1.72-.39Z" fill="#023002"></path>
      <path d="M390.72,396.43c-2.11,0-3.41-.1-3.47-.11-9.18-.91-15.34-3.5-18.32-7.7-2.46-3.47-2.06-7.12-1.6-8.99,.25-1.01,.67-1.86,1.26-2.53,4.79-5.41,14.86,1.7,20.44,6.42,2.58,2.18,5.54,3.65,8.57,4.25,2.36,.47,4.55,.45,7.09-.06,4.51-.97,8.77-3.06,12.29-6.05,1.73-1.59,3.86-2.82,6.12-3.53l.07-.02c.76-.14,1.56,.04,2.19,.5,.62,.45,1.04,1.11,1.16,1.87,.12,.76-.06,1.52-.51,2.15-9.08,12.43-27.61,13.8-35.3,13.8Zm-17.58-20.02c-1.42,0-2.68,.44-3.63,1.52-.45,.51-.78,1.18-.98,2-.41,1.66-.76,4.91,1.41,7.98,2.76,3.89,8.62,6.31,17.42,7.18,.26,.02,26.49,2.09,37.65-13.18,.25-.35,.36-.79,.29-1.22-.07-.43-.31-.81-.66-1.07-.35-.25-.79-.35-1.22-.29-2.08,.66-4.03,1.79-5.64,3.26-3.7,3.13-8.14,5.32-12.86,6.33-2.71,.54-5.05,.57-7.58,.07-3.23-.64-6.38-2.2-9.13-4.52-3.27-2.76-10.17-8.06-15.09-8.06Z" fill="#002346"></path>
    </g>
    <path d="M410.92,368.92c-.16,0-.32-.06-.44-.18-.24-.24-.24-.63,0-.87,.08-.08,8.02-7.85,19.84-5.22,.33,.07,.54,.4,.47,.74s-.4,.54-.74,.47c-11.17-2.48-18.62,4.82-18.7,4.89-.12,.12-.28,.18-.44,.18Z" fill="#002346"></path>
    <path d="M406.61,358.97c-.18,0-.36-.08-.48-.23-.21-.27-.17-.65,.09-.87,.4-.32,9.98-7.91,19.85-5.82,.33,.07,.55,.4,.48,.73s-.4,.54-.73,.48c-9.29-1.96-18.73,5.5-18.82,5.57-.11,.09-.25,.14-.39,.14Z" fill="#002346"></path>
    <path d="M405.02,350.52c-.21,0-.41-.11-.53-.3-.18-.29-.08-.67,.21-.85,.37-.22,9.22-5.47,16.75-5.01,.34,.02,.6,.31,.58,.66-.02,.34-.31,.59-.65,.58-7.15-.45-15.95,4.78-16.04,4.83-.1,.06-.21,.09-.32,.09Z" fill="#002346"></path>
    <path d="M396.77,531.29c-.34,0-.62-.28-.62-.62v-134.85c0-.34,.28-.62,.62-.62s.62,.28,.62,.62v134.85c0,.34-.28,.62-.62,.62Z" fill="#002346"></path>
    <path d="M753.37,374.78h-79.13c-.34,0-.62-.28-.62-.62s.28-.62,.62-.62h79.13c.34,0,.62,.28,.62,.62s-.28,.62-.62,.62Z" fill="#002346"></path>
    <path d="M752.59,380.4h-77.52c-.34,0-.62-.28-.62-.62s.28-.62,.62-.62h77.52c.34,0,.62,.28,.62,.62s-.28,.62-.62,.62Z" fill="#002346"></path>
    <path d="M412.68,300.38c-.34,0-.62-.28-.62-.62V53.35c0-.34,.28-.62,.62-.62s.62,.28,.62,.62v246.41c0,.34-.28,.62-.62,.62Z" fill="#002346"></path>
    <path d="M577.4,177.17H235.22c-.34,0-.62-.28-.62-.62s.28-.62,.62-.62h342.17c.34,0,.62,.28,.62,.62s-.28,.62-.62,.62Z" fill="#002346"></path>
    <path d="M412.16,252.75c-42.59,0-77.24-34.65-77.24-77.24s34.65-77.24,77.24-77.24,77.24,34.65,77.24,77.24-34.65,77.24-77.24,77.24Zm0-153.25c-41.91,0-76.01,34.1-76.01,76.01s34.1,76.01,76.01,76.01,76.01-34.1,76.01-76.01-34.1-76.01-76.01-76.01Z" fill="#002346"></path>
    <path d="M412.16,242.16c-36.75,0-66.65-29.9-66.65-66.65s29.9-66.65,66.65-66.65,66.65,29.9,66.65,66.65-29.9,66.65-66.65,66.65Zm0-132.24c-36.17,0-65.59,29.42-65.59,65.59s29.42,65.59,65.59,65.59,65.59-29.42,65.59-65.59-29.42-65.59-65.59-65.59Z" fill="#002346"></path>
    <g>
      <path d="M336.85,308.16l-1.58,13.08s18.07,8.05,25.45-14.48c.02-.07-.05-.13-.11-.09-1.58,1.37-12.82,10.48-23.76,1.49Z" fill="#002346"></path>
      <path d="M342.58,323.27c-4.21,0-7.37-1.37-7.57-1.46l-.42-.19,1.77-14.65,.87,.72c10.41,8.56,20.95,.27,22.96-1.47l.36-.31,.47,.26c.26,.17,.37,.5,.27,.8-2.46,7.53-6.37,12.52-11.62,14.85-2.47,1.1-4.93,1.46-7.1,1.46Zm-6.64-2.43c1.59,.59,7.46,2.41,13.26-.17,4.5-2,7.96-6.15,10.32-12.35-3.66,2.62-12.96,7.8-22.18,1l-1.39,11.52Z" fill="#002346"></path>
    </g>
  </g>
</svg>
