<?xml version="1.0" encoding="UTF-8"?>
<svg xmlns="http://www.w3.org/2000/svg" id="a" width="865.76" height="682.89" viewBox="0 0 865.76 682.89">
  <g>
    <path d="M403.73,436.96h-19.14c-21.26,0-38.51,23.82-38.51,53.22s17.25,53.2,38.51,53.2h19.14c21.26,0,38.49-23.82,38.49-53.2s-17.23-53.22-38.49-53.22Z" fill="#002346"></path>
    <path d="M403.73,543.87h-19.14c-21.51,0-39.01-24.09-39.01-53.7s17.5-53.72,39.01-53.72h19.14c21.5,0,38.99,24.1,38.99,53.72s-17.49,53.7-38.99,53.7Zm-19.14-106.42c-20.96,0-38.01,23.65-38.01,52.72s17.05,52.7,38.01,52.7h19.14c20.95,0,37.99-23.64,37.99-52.7s-17.04-52.72-37.99-52.72h-19.14Z" fill="#002346"></path>
  </g>
  <g>
    <path d="M409.74,440.74c-17.76,0-32.19,22.13-32.19,49.44s14.4,49.44,32.19,49.44,32.19-22.14,32.19-49.44-14.42-49.44-32.19-49.44Z" fill="#fff"></path>
    <path d="M409.74,540.11c-18.03,0-32.69-22.4-32.69-49.94s14.67-49.94,32.69-49.94,32.69,22.4,32.69,49.94-14.67,49.94-32.69,49.94Zm0-98.88c-17.47,0-31.69,21.95-31.69,48.94s14.22,48.94,31.69,48.94,31.69-21.95,31.69-48.94-14.22-48.94-31.69-48.94Z" fill="#002346"></path>
  </g>
  <g>
    <path d="M412.6,463.42c-9.61,0-17.38,11.96-17.38,26.72s7.78,26.72,17.38,26.72,17.38-11.96,17.38-26.72-7.84-26.72-17.38-26.72Z" fill="#002346"></path>
    <path d="M412.6,517.36c-9.86,0-17.88-12.21-17.88-27.22s8.02-27.22,17.88-27.22,17.88,12.21,17.88,27.22-8.02,27.22-17.88,27.22Zm0-53.44c-9.31,0-16.88,11.76-16.88,26.22s7.57,26.22,16.88,26.22,16.88-11.76,16.88-26.22-7.57-26.22-16.88-26.22Z" fill="#002346"></path>
  </g>
  <g>
    <path d="M183.47,436.96h-19.14c-21.26,0-38.51,23.82-38.51,53.22s17.25,53.2,38.51,53.2h19.14c21.26,0,38.49-23.82,38.49-53.2s-17.23-53.22-38.49-53.22Z" fill="#002346"></path>
    <path d="M183.47,543.87h-19.15c-21.51,0-39.01-24.09-39.01-53.7s17.5-53.72,39.01-53.72h19.15c21.5,0,38.99,24.1,38.99,53.72s-17.49,53.7-38.99,53.7Zm-19.15-106.42c-20.96,0-38.01,23.65-38.01,52.72s17.05,52.7,38.01,52.7h19.15c20.95,0,37.99-23.64,37.99-52.7s-17.04-52.72-37.99-52.72h-19.15Z" fill="#002346"></path>
  </g>
  <g>
    <path d="M189.49,440.74c-17.76,0-32.19,22.13-32.19,49.44s14.4,49.44,32.19,49.44,32.19-22.14,32.19-49.44-14.42-49.44-32.19-49.44Z" fill="#fff"></path>
    <path d="M189.49,540.11c-18.03,0-32.69-22.4-32.69-49.94s14.67-49.94,32.69-49.94,32.69,22.4,32.69,49.94-14.67,49.94-32.69,49.94Zm0-98.88c-17.47,0-31.69,21.95-31.69,48.94s14.22,48.94,31.69,48.94,31.69-21.95,31.69-48.94-14.22-48.94-31.69-48.94Z" fill="#002346"></path>
  </g>
  <g>
    <path d="M192.35,463.42c-9.61,0-17.38,11.96-17.38,26.72s7.78,26.72,17.38,26.72,17.38-11.96,17.38-26.72-7.84-26.72-17.38-26.72Z" fill="#002346"></path>
    <path d="M192.35,517.36c-9.86,0-17.88-12.21-17.88-27.22s8.02-27.22,17.88-27.22,17.88,12.21,17.88,27.22-8.02,27.22-17.88,27.22Zm0-53.44c-9.31,0-16.88,11.76-16.88,26.22s7.57,26.22,16.88,26.22,16.88-11.76,16.88-26.22-7.57-26.22-16.88-26.22Z" fill="#002346"></path>
  </g>
  <g>
    <path d="M577.59,432.47l.27,54.77c.04,8.74-7.02,15.85-15.76,15.89-.02,0-.05,0-.07,0h-139.57c-11.75,11.92-27.79,18.64-44.52,18.64h-89.32l-10.17-15.25h-20.33l-2.71,2.56c-7.47,7.06-17.37,11-27.65,11h0c-10.92,0-21.37-4.43-28.95-12.28l-1.22-1.27h-46.49c-7.68,0-14.24-5.52-15.55-13.08l-12.4-71.33,454.45,10.35Z" fill="#e6e7e8"></path>
    <path d="M377.94,522.27h-89.59l-10.17-15.25h-19.86l-2.57,2.42c-7.59,7.18-17.53,11.13-27.98,11.13h-.02c-10.99,0-21.67-4.53-29.3-12.44l-1.07-1.12h-46.29c-7.94,0-14.68-5.67-16.03-13.49l-12.51-71.93h.61s454.93,10.38,454.93,10.38v.49s.27,54.77,.27,54.77c.02,4.36-1.66,8.47-4.73,11.56-3.07,3.1-7.16,4.81-11.52,4.83h-139.43c-11.75,11.85-28.04,18.64-44.73,18.64Zm-89.05-1h89.05c16.49,0,32.59-6.74,44.17-18.49l.15-.15h139.78c4.16-.02,8-1.63,10.88-4.54,2.88-2.91,4.46-6.76,4.44-10.85l-.27-54.29-453.35-10.33,12.3,70.73c1.27,7.34,7.6,12.66,15.05,12.66h46.72l1.37,1.42c7.45,7.71,17.86,12.13,28.58,12.13,0,0,.01,0,.02,0,10.19,0,19.89-3.86,27.3-10.86l2.86-2.7h20.8l10.17,15.25Z" fill="#002346"></path>
  </g>
  <g>
    <path d="M114.2,489.34c.94,2.15,3.07,3.54,5.42,3.52h182.98c.32-37.19,22.36-67.19,49.52-67.19s49.13,30,49.52,67.19h83.93c.32-37.19,22.36-67.19,49.52-67.19s47.81,28.16,49.42,63.7c1.96-2.1,3-4.89,2.9-7.76-3.17-89.08-43.51-115.58-43.51-115.58,0,0-1.39-6.4-4.03-15.86-6.47-23.35-20.45-65.31-39.48-75.31-1.52-.76-3.1-1.38-4.73-1.86-38.59-12.01-204.46-10.25-231.3,2.32-28.14,13.2-64.38,78.6-64.38,78.6-20.96,7.72-40.3,19.25-57.06,34-1.87,1.68-3.73,3.44-5.57,5.27-2.74,2.73-5.42,5.62-8,8.69-3.95,4.74-7.35,9.91-10.17,15.4-1.79,3.59-3.38,7.28-4.78,11.05-.88,2.29-1.61,4.42-2.22,6.34-.94,2.84-1.73,5.73-2.37,8.66-8.96,6.15-2.47,30.16,4.37,46.02Z" fill="#FFCF88"></path>
    <path d="M119.58,493.37c-2.53,0-4.83-1.5-5.84-3.82h0c-6.09-14.11-13.81-39.68-4.36-46.51,.64-2.87,1.43-5.74,2.34-8.52,.71-2.24,1.44-4.32,2.23-6.36,1.4-3.76,3.01-7.5,4.8-11.09,2.83-5.52,6.27-10.73,10.23-15.5,2.52-3,5.22-5.93,8.03-8.73,1.83-1.82,3.72-3.6,5.59-5.29,16.83-14.82,36.02-26.27,57.05-34.04,2.05-3.65,37.24-65.85,64.52-78.64,26.77-12.54,193.48-14.23,231.66-2.35,1.65,.49,3.26,1.12,4.8,1.89,19.12,10.04,33.1,51.69,39.73,75.62,2.36,8.46,3.74,14.55,4,15.69,1.38,.97,10.87,8.03,20.55,24.43,9.59,16.25,21.37,45.31,23.01,91.43,.11,2.98-.99,5.94-3.03,8.12l-.81,.87-.05-1.19c-1.61-35.45-23.1-63.23-48.92-63.23s-48.7,29.92-49.02,66.7v.5h-84.93v-.49c-.39-36.78-22.38-66.7-49.03-66.7s-48.71,29.92-49.02,66.7v.5H119.58Zm-4.93-4.22c.86,1.96,2.79,3.22,4.93,3.22h182.52c.52-37.1,22.88-67.19,50.02-67.19,13.28,0,25.78,7.05,35.2,19.85,9.28,12.62,14.53,29.41,14.81,47.34h82.95c.52-37.1,22.88-67.19,50.02-67.19s47.77,27.52,49.85,62.9c1.34-1.85,2.05-4.13,1.96-6.43-1.63-45.87-13.32-74.74-22.83-90.89-10.3-17.49-20.35-24.22-20.45-24.29l-.17-.11-.04-.2c-.01-.06-1.42-6.5-4.03-15.83-6.59-23.78-20.45-65.14-39.23-75-1.48-.74-3.04-1.36-4.64-1.83-38.08-11.85-204.27-10.2-230.94,2.29-27.67,12.98-63.79,77.73-64.16,78.39l-.09,.16-.17,.06c-20.98,7.73-40.12,19.13-56.9,33.91-1.86,1.67-3.73,3.44-5.55,5.25-2.79,2.77-5.47,5.69-7.97,8.66-3.91,4.71-7.31,9.86-10.1,15.31-1.77,3.56-3.37,7.26-4.75,10.99-.78,2.03-1.5,4.09-2.21,6.31-.93,2.81-1.72,5.71-2.36,8.61l-.04,.19-.16,.11c-7.98,5.47-3.24,27.37,4.55,45.4h0Z" fill="#002346"></path>
  </g>
  <path d="M200.06,353.92s13.74,8.83,150.43,2.66c3.22-.14,12.81-1.37,12.81-1.37,0,0,10.05-3.69,32.9-6.57,20.89-2.61,108.13-.49,143.71,1.54-6.47-23.35-20.45-65.31-39.48-75.31-1.52-.76-3.1-1.38-4.73-1.86-38.59-12.01-204.46-10.25-231.3,2.32-28.14,13.2-64.35,78.6-64.35,78.6Z" fill="#002346"></path>
  <g>
    <path d="M352.9,436.96h-19.14c-21.26,0-38.51,23.82-38.51,53.22s17.25,53.2,38.51,53.2h19.14c21.26,0,38.49-23.82,38.49-53.2s-17.23-53.22-38.49-53.22Z" fill="#002346"></path>
    <path d="M352.9,543.87h-19.14c-21.51,0-39.01-24.09-39.01-53.7s17.5-53.72,39.01-53.72h19.14c21.5,0,38.99,24.1,38.99,53.72s-17.49,53.7-38.99,53.7Zm-19.14-106.42c-20.96,0-38.01,23.65-38.01,52.72s17.05,52.7,38.01,52.7h19.14c20.95,0,37.99-23.64,37.99-52.7s-17.04-52.72-37.99-52.72h-19.14Z" fill="#002346"></path>
  </g>
  <g>
    <path d="M358.91,440.74c-17.76,0-32.19,22.13-32.19,49.44s14.4,49.44,32.19,49.44,32.19-22.14,32.19-49.44-14.42-49.44-32.19-49.44Z" fill="#fff"></path>
    <path d="M358.91,540.11c-18.03,0-32.69-22.4-32.69-49.94s14.67-49.94,32.69-49.94,32.69,22.4,32.69,49.94-14.67,49.94-32.69,49.94Zm0-98.88c-17.47,0-31.69,21.95-31.69,48.94s14.22,48.94,31.69,48.94,31.69-21.95,31.69-48.94-14.22-48.94-31.69-48.94Z" fill="#002346"></path>
  </g>
  <g>
    <path d="M361.78,463.42c-9.61,0-17.38,11.96-17.38,26.72s7.78,26.72,17.38,26.72,17.38-11.96,17.38-26.72-7.84-26.72-17.38-26.72Z" fill="#002346"></path>
    <path d="M361.78,517.36c-9.86,0-17.88-12.21-17.88-27.22s8.02-27.22,17.88-27.22,17.88,12.21,17.88,27.22-8.02,27.22-17.88,27.22Zm0-53.44c-9.31,0-16.88,11.76-16.88,26.22s7.57,26.22,16.88,26.22,16.88-11.76,16.88-26.22-7.57-26.22-16.88-26.22Z" fill="#002346"></path>
  </g>
  <g>
    <path d="M532.49,436.96h-19.14c-21.26,0-38.51,23.82-38.51,53.22s17.25,53.2,38.51,53.2h19.14c21.26,0,38.49-23.82,38.49-53.2s-17.23-53.22-38.49-53.22Z" fill="#002346"></path>
    <path d="M532.49,543.87h-19.15c-21.51,0-39.01-24.09-39.01-53.7s17.5-53.72,39.01-53.72h19.15c21.5,0,38.99,24.1,38.99,53.72s-17.49,53.7-38.99,53.7Zm-19.15-106.42c-20.96,0-38.01,23.65-38.01,52.72s17.05,52.7,38.01,52.7h19.15c20.95,0,37.99-23.64,37.99-52.7s-17.04-52.72-37.99-52.72h-19.15Z" fill="#002346"></path>
  </g>
  <g>
    <path d="M538.5,440.74c-17.76,0-32.19,22.13-32.19,49.44s14.4,49.44,32.19,49.44,32.19-22.14,32.19-49.44-14.42-49.44-32.19-49.44Z" fill="#fff"></path>
    <path d="M538.5,540.11c-18.03,0-32.69-22.4-32.69-49.94s14.67-49.94,32.69-49.94,32.69,22.4,32.69,49.94-14.67,49.94-32.69,49.94Zm0-98.88c-17.47,0-31.69,21.95-31.69,48.94s14.22,48.94,31.69,48.94,31.69-21.95,31.69-48.94-14.22-48.94-31.69-48.94Z" fill="#002346"></path>
  </g>
  <g>
    <path d="M541.37,463.42c-9.61,0-17.38,11.96-17.38,26.72s7.78,26.72,17.38,26.72,17.38-11.96,17.38-26.72-7.84-26.72-17.38-26.72Z" fill="#002346"></path>
    <path d="M541.37,517.36c-9.86,0-17.88-12.21-17.88-27.22s8.02-27.22,17.88-27.22,17.88,12.21,17.88,27.22-8.02,27.22-17.88,27.22Zm0-53.44c-9.31,0-16.88,11.76-16.88,26.22s7.57,26.22,16.88,26.22,16.88-11.76,16.88-26.22-7.57-26.22-16.88-26.22Z" fill="#002346"></path>
  </g>
  <g>
    <path d="M385.73,276.31l-28.5,77.61s-125.63,6-149.79,0c0,0,27.67-52.61,51.96-67.99,24.3-15.38,126.32-9.62,126.32-9.62Z" fill="#fff"></path>
    <path d="M257.01,357.07c-22.26,0-41.64-.66-49.68-2.66l-.62-.15,.3-.56c.28-.53,28.01-52.9,52.14-68.18,24.15-15.29,122.45-9.94,126.62-9.7l.67,.04-28.84,78.56-.33,.02c-.83,.04-56.18,2.65-100.25,2.65Zm-48.81-3.48c24.64,5.52,141.56,.19,148.69-.15l28.15-76.67c-8.91-.46-102.5-4.89-125.35,9.58-22.55,14.28-48.4,61.49-51.48,67.23Z" fill="#002346"></path>
  </g>
  <g>
    <path d="M114.42,428.33c9.52,2.37,20.99-4.71,26.75-17.03,3.83-8.18,4.29-16.81,1.85-23.38-1.87,1.68-3.73,3.44-5.57,5.27-2.74,2.73-5.42,5.62-8,8.69-3.95,4.74-7.35,9.91-10.17,15.4-1.82,3.59-3.44,7.28-4.86,11.05Z" fill="#fff"></path>
    <path d="M118.14,429.28c-1.3,0-2.59-.15-3.85-.46l-.55-.14,.2-.53c1.42-3.77,3.07-7.5,4.88-11.1,2.83-5.52,6.27-10.73,10.23-15.5,2.52-3,5.22-5.93,8.03-8.73,1.84-1.83,3.72-3.61,5.59-5.29l.55-.49,.26,.69c2.56,6.91,1.87,15.79-1.86,23.77-5.02,10.73-14.6,17.76-23.48,17.76Zm-3.05-1.31c9.25,1.93,20.18-5.23,25.63-16.88,3.49-7.47,4.25-15.74,2.08-22.29-1.67,1.52-3.35,3.11-5,4.75-2.79,2.77-5.47,5.69-7.97,8.66-3.91,4.71-7.31,9.86-10.1,15.31-1.71,3.39-3.27,6.91-4.64,10.46Z" fill="#002346"></path>
  </g>
  <g>
    <path d="M373.35,348.64s20.33-71.89,24.97-73.31c4.64-1.42,79.24-2.46,96.66,4.91,17.42,7.37,32.7,65.38,32.7,65.38,0,0-131.47-9.78-154.33,3.02Z" fill="#fff"></path>
    <path d="M372.54,349.66l.33-1.16c2.09-7.38,20.54-72.19,25.31-73.65,4.88-1.5,79.35-2.54,97,4.93,17.44,7.38,32.36,63.33,32.99,65.71l.18,.68-.7-.05c-1.31-.1-131.58-9.62-154.05,2.95l-1.05,.59Zm52.78-74.83c-14.11,0-25.12,.44-26.85,.97-3.15,.97-16.45,44.11-24.33,71.86,24.58-11.59,141.55-3.42,152.87-2.6-1.78-6.51-16.24-57.61-32.23-64.37-10.7-4.53-44.82-5.87-69.47-5.87Z" fill="#002346"></path>
  </g>
  <g>
    <path d="M254.6,391.37c-10.17,11.05-11.67,26.02-3.54,33.43,8.13,7.4,22.87,4.46,32.95-6.59,10.08-11.05,11.69-25.94,3.56-33.43-8.13-7.49-22.89-4.37-32.97,6.59Z" fill="#fff"></path>
    <path d="M262.3,429.35c-4.4,0-8.47-1.36-11.58-4.19-3.29-2.99-5.14-7.23-5.36-12.25-.33-7.42,2.91-15.4,8.87-21.89,4.97-5.4,11.18-9.08,17.48-10.37,6.4-1.3,12.15,.03,16.19,3.75,8.28,7.62,6.69,22.93-3.53,34.13-6.41,7.02-14.72,10.81-22.08,10.81Zm14.08-48.18c-1.44,0-2.93,.15-4.46,.47-6.1,1.24-12.12,4.81-16.95,10.06h0c-5.7,6.2-8.92,14.11-8.61,21.17,.21,4.75,1.95,8.75,5.04,11.55,7.91,7.2,22.37,4.26,32.25-6.56,9.85-10.79,11.46-25.47,3.59-32.72-2.84-2.61-6.59-3.97-10.85-3.97Z" fill="#002346"></path>
  </g>
  <g>
    <path d="M256.36,392.98c-6.78,7.37-7.78,17.37-2.35,22.3,5.42,4.93,15.25,2.98,22.03-4.39,6.78-7.37,7.78-17.37,2.35-22.3-5.42-4.93-15.3-2.98-22.03,4.39Z" fill="#e6e7e8"></path>
    <path d="M261.5,418.47c-2.98,0-5.73-.92-7.83-2.83-2.22-2.02-3.48-4.89-3.63-8.28-.22-5,1.95-10.37,5.95-14.72,6.9-7.56,17.1-9.54,22.73-4.42,2.22,2.02,3.48,4.89,3.63,8.28,.22,5-1.95,10.37-5.95,14.73-4.33,4.71-9.93,7.25-14.9,7.25Zm9.34-32.11c-4.68,0-10,2.44-14.12,6.95h0c-3.77,4.1-5.9,9.34-5.69,14.01,.14,3.12,1.28,5.74,3.3,7.58,5.2,4.73,14.77,2.77,21.32-4.36,3.77-4.1,5.9-9.34,5.69-14-.14-3.12-1.28-5.74-3.3-7.58-1.93-1.76-4.46-2.6-7.2-2.6Z" fill="#002346"></path>
  </g>
  <g>
    <path d="M120.26,418.25l.54,.44c3.9,2.68,10.88-.73,15.6-7.59,4.56-6.61,5.37-14.01,1.95-16.94-2.74,2.73-5.42,5.62-8,8.69-3.92,4.75-7.31,9.91-10.1,15.4Z" fill="#e6e7e8"></path>
    <path d="M123.9,420.09c-1.26,0-2.41-.32-3.38-.98l-.89-.72,.18-.36c2.8-5.51,6.22-10.73,10.16-15.49,2.52-3,5.22-5.94,8.03-8.73l.33-.33,.35,.3c3.62,3.1,2.81,10.84-1.86,17.61-3.72,5.41-8.87,8.7-12.92,8.7Zm-3.01-1.97l.23,.19c3.62,2.49,10.31-.86,14.88-7.49,4.22-6.12,5.21-12.99,2.37-15.96-2.67,2.67-5.23,5.46-7.62,8.32-3.8,4.6-7.12,9.63-9.85,14.95Z" fill="#002346"></path>
  </g>
  <g>
    <path d="M232.68,446.65l-15.08-27.28c-1.69-3.11-4.93-5.06-8.47-5.08h-52.52c-3.36,0-6.48,1.73-8.27,4.57l-18.67,29.75c-1.77,2.83-1.99,6.37-.56,9.39l4.69,9.88c1.62,3.41,5.06,5.57,8.83,5.57h68.94c2.53-.02,4.96-1.01,6.78-2.78l12.61-12.32c3.14-3.07,3.84-7.86,1.73-11.71Z" fill="#fbe493"></path>
    <path d="M142.63,473.95c-3.94,0-7.58-2.3-9.28-5.86l-4.69-9.88c-1.51-3.19-1.29-6.88,.59-9.87l18.67-29.75c1.89-3.01,5.14-4.81,8.69-4.81h52.52c3.72,.03,7.14,2.08,8.91,5.34l15.08,27.28c2.21,4.03,1.47,9.09-1.82,12.3l-12.61,12.32c-1.92,1.87-4.45,2.9-7.12,2.92h-68.94Zm66.5-59.16h-52.52c-3.21,0-6.14,1.63-7.84,4.34l-18.67,29.75c-1.69,2.7-1.89,6.03-.53,8.91l4.69,9.88c1.53,3.21,4.82,5.29,8.38,5.29h68.94c2.41-.02,4.7-.95,6.43-2.64l12.6-12.32c2.96-2.9,3.64-7.47,1.64-11.11l-15.08-27.28c-1.6-2.95-4.68-4.8-8.04-4.82Z" fill="#002346"></path>
  </g>
  <g>
    <path d="M246.99,470.79c0,4.95,3.3,8.96,7.37,8.96s7.37-4.02,7.37-8.96-3.3-8.96-7.37-8.96-7.37,4.02-7.37,8.96Z" fill="#fff"></path>
    <path d="M254.36,480.25c-4.34,0-7.87-4.25-7.87-9.46s3.53-9.46,7.87-9.46,7.87,4.24,7.87,9.46-3.53,9.46-7.87,9.46Zm0-17.93c-3.79,0-6.87,3.8-6.87,8.46s3.08,8.46,6.87,8.46,6.87-3.8,6.87-8.46-3.08-8.46-6.87-8.46Z" fill="#002346"></path>
  </g>
  <g opacity=".6">
    <path d="M249.01,471.22c.39,2.04,2.37,3.37,4.4,2.98,2.04-.39,3.37-2.37,2.98-4.4-.34-1.78-1.9-3.06-3.71-3.05-2.23,.25-3.86,2.23-3.68,4.47Z" fill="#fff"></path>
  </g>
  <g opacity=".6">
    <path d="M115.65,470.79c.39,2.04,2.37,3.37,4.4,2.98,2.04-.39,3.37-2.37,2.98-4.4-.34-1.78-1.9-3.06-3.71-3.05-2.24,.24-3.87,2.23-3.68,4.47Z" fill="#fff"></path>
  </g>
  <g>
    <path d="M113.37,470.79c0,4.95,3.39,8.96,7.37,8.96s7.37-4.02,7.37-8.96-3.29-8.96-7.37-8.96-7.37,4.02-7.37,8.96Z" fill="#fff"></path>
    <path d="M120.74,480.25c-4.34,0-7.87-4.25-7.87-9.46s3.53-9.46,7.87-9.46,7.87,4.24,7.87,9.46-3.53,9.46-7.87,9.46Zm0-17.93c-3.79,0-6.87,3.8-6.87,8.46s3.15,8.46,6.87,8.46,6.87-3.88,6.87-8.46-3.08-8.46-6.87-8.46Z" fill="#002346"></path>
  </g>
  <g>
    <path d="M286.45,492.87h13.11c5.76,.01,10.77-3.94,12.1-9.54,3.39-14.42,13.37-40.66,41.24-46.37,29.36-5.98,39.07,28.97,42.07,46.44,.93,5.47,5.67,9.47,11.22,9.47h3.13s0-85.22-61.43-78.53c-43.34,4.73-55.59,69.29-55.59,69.29l-5.85,9.23Z" fill="#fbe493"></path>
    <path d="M299.59,493.37h-14.05l6.28-9.92c.27-1.36,3.49-16.97,11.57-32.91,11.17-22.05,26.54-34.74,44.44-36.69,14.97-1.63,27.6,2.06,37.54,10.97,24.17,21.68,24.45,67.59,24.45,68.06v.5h-3.64c-5.81,0-10.73-4.16-11.7-9.89-2.04-11.88-7.46-33.18-20.81-42.31-5.93-4.06-12.89-5.31-20.67-3.72-27.46,5.63-37.38,31.23-40.85,46-1.39,5.85-6.55,9.92-12.55,9.92Zm-12.24-1h12.23c5.54,0,10.3-3.76,11.58-9.15,3.52-14.99,13.62-41.01,41.62-46.75,8.06-1.64,15.27-.34,21.43,3.88,13.65,9.34,19.16,30.93,21.23,42.97,.89,5.25,5.39,9.06,10.72,9.06h2.63c-.1-5.04-1.63-46.65-24.11-66.81-9.71-8.71-22.08-12.32-36.76-10.72-42.48,4.63-55.03,68.25-55.15,68.89l-.07,.17-5.36,8.47Z" fill="#002346"></path>
  </g>
  <g>
    <path d="M466.04,492.87h13.11c5.76,.01,10.77-3.94,12.1-9.54,3.39-14.42,13.37-40.66,41.24-46.37,29.36-5.98,39.07,28.97,42.07,46.44,.93,5.47,5.67,9.47,11.22,9.47h3.13s0-85.22-61.43-78.53c-43.34,4.73-55.59,69.29-55.59,69.29l-5.85,9.23Z" fill="#fbe493"></path>
    <path d="M479.18,493.37h-14.05l6.28-9.92c.27-1.36,3.49-16.97,11.57-32.91,11.17-22.05,26.54-34.74,44.44-36.69,14.98-1.63,27.61,2.06,37.54,10.97,24.17,21.68,24.45,67.59,24.45,68.06v.5h-3.64c-5.81,0-10.73-4.16-11.7-9.89-2.04-11.88-7.46-33.18-20.81-42.31-5.93-4.06-12.89-5.31-20.67-3.72-27.46,5.63-37.38,31.23-40.85,46-1.39,5.85-6.55,9.92-12.55,9.92Zm-12.24-1h12.23c5.54,0,10.3-3.76,11.58-9.15,3.52-14.99,13.62-41.01,41.62-46.75,8.06-1.64,15.27-.34,21.43,3.88,13.65,9.34,19.16,30.93,21.23,42.97,.89,5.25,5.4,9.06,10.72,9.06h2.63c-.1-5.04-1.63-46.65-24.11-66.81-9.71-8.71-22.08-12.32-36.76-10.72-42.48,4.63-55.03,68.25-55.15,68.89l-.07,.17-5.36,8.47Z" fill="#002346"></path>
  </g>
  <g>
    <path d="M273.79,361.85s-37.54,21.94-42.19,48.2h-15.45s1.34-25.11,36.53-48.2h21.11Z" fill="#fff"></path>
    <path d="M232.03,410.55h-16.4l.03-.53c.01-.25,1.76-25.63,36.75-48.59l.12-.08h23.11l-1.59,.93c-.37,.22-37.4,22.13-41.95,47.86l-.07,.41Zm-15.32-1h14.48c4.37-22.98,33.79-42.75,40.84-47.2h-19.19c-31.64,20.82-35.67,43.48-36.12,47.2Z" fill="#002346"></path>
  </g>
  <g>
    <path d="M228.44,360.67s-49.39,15.6-67.46,49.39h-12.28s12.5-31.12,61.21-50.2l18.53,.81Z" fill="#fff"></path>
    <path d="M161.27,410.55h-13.32l.28-.69c.13-.31,13.14-31.54,61.49-50.48l.1-.04,21.47,.94-2.7,.85c-.49,.16-49.4,15.93-67.17,49.15l-.14,.26Zm-11.81-1h11.21c15.73-29.04,54.87-44.79,65.13-48.5l-15.81-.69c-43.86,17.21-58.32,44.53-60.52,49.2Z" fill="#002346"></path>
  </g>
  <g>
    <g>
      <g>
        <polygon points="526.98 382.34 519.96 438.46 475.07 405.02 462.68 357.79 464.28 340.69 464.78 338.38 526.98 382.34" fill="#fbe493"></polygon>
        <path d="M520.35,439.37l-45.72-34.05-.04-.17-12.42-47.32v-.09s1.61-17.1,1.61-17.1l.67-3.1,63.06,44.57-7.16,57.27Zm-44.85-34.65l44.07,32.82,6.87-54.97-61.34-43.35-.34,1.57-1.59,16.96,12.33,46.98Z" fill="#002346"></path>
      </g>
      <g>
        <polygon points="537.03 375.79 540.77 424.66 519.96 438.46 526.98 382.34 522.77 373.45 537.03 375.79" fill="#fbe493"></polygon>
        <path d="M519.33,439.48l7.13-57.05-4.55-9.62,15.59,2.56,3.79,49.55-21.96,14.56Zm4.3-65.38l3.86,8.16-.02,.14-6.88,55.04,19.66-13.03-3.69-48.19-12.93-2.12Z" fill="#002346"></path>
      </g>
      <g>
        <path d="M536.34,375.68c.14,.02,.21-.16,.09-.23-10.6-5.97-22.08-13.18-34-21.87-9.93-7.24-18.76-14.49-26.55-21.44-.1-.09-.24,.01-.2,.13,.95,2.98,1.89,5.96,2.84,8.94,.03,.09-.05,.18-.15,.16l-12.97-2.86c-.13-.03-.21,.15-.1,.23l61.3,43.32c.11,.07,.24-.04,.19-.16l-3.9-8.23c-.04-.09,.03-.19,.13-.18l13.33,2.19Z" fill="#fbe493"></path>
        <path d="M526.66,382.59c-.13,0-.25-.04-.36-.11l-61.3-43.32c-.25-.17-.33-.49-.21-.76,.12-.28,.41-.43,.71-.36l12.34,2.72-2.64-8.33c-.09-.27,.02-.56,.26-.72,.24-.15,.54-.13,.75,.06,8.45,7.54,17.37,14.74,26.51,21.41,10.83,7.9,22.26,15.25,33.95,21.84,.26,.15,.38,.46,.28,.75-.1,.29-.39,.46-.69,.41l-12.63-2.07,3.6,7.59c.12,.26,.05,.56-.16,.75-.12,.1-.26,.15-.4,.15Zm-59.57-43.18l58.62,41.43-3.29-6.95c-.1-.21-.08-.46,.07-.64,.14-.19,.38-.28,.6-.24l11.26,1.85c-11.08-6.34-21.92-13.35-32.22-20.86-8.8-6.42-17.4-13.33-25.57-20.57l2.42,7.64c.07,.21,.02,.45-.13,.61-.15,.16-.38,.24-.6,.19l-11.16-2.46Zm69.33,35.78h0s0,0,0,0Zm-13.49-1.2h0Zm.4-.53h0s0,0,0,0Zm-57.75-35.12,9.96-5.82s0,0,0,0c0,0,0,0,0,0Zm.61-.39h0s0,0,0,0Z" fill="#002346"></path>
      </g>
    </g>
    <path d="M487.69,341.22c-.14,.59-2.06,8.66-1.73,12.2l-2.98-2.11s2.14-6.34,4.7-10.09c0,0,.01,0,.01,0Z" fill="#002346"></path>
    <path d="M696.6,257.43c-.23,0-.43-.17-.46-.4l-1.9-12.47c-.04-.26,.14-.49,.39-.53,.25-.04,.49,.14,.53,.39l1.9,12.47c.04,.26-.14,.49-.39,.53-.02,0-.05,0-.07,0Z" fill="#002346"></path>
    <path d="M694.63,257.43c-.23,0-.43-.17-.46-.4l-1.29-9.44c-.03-.26,.14-.49,.4-.53,.26-.04,.49,.14,.53,.4l1.29,9.44c.03,.26-.14,.49-.4,.53-.02,0-.04,0-.06,0Z" fill="#002346"></path>
    <path d="M707.85,258.06c-.15,0-.29-.07-.38-.19l-11.93-16.6c-.15-.21-.1-.5,.11-.65,.21-.15,.5-.1,.65,.11l11.93,16.6c.15,.21,.1,.5-.11,.65-.08,.06-.18,.09-.27,.09Z" fill="#002346"></path>
    <g>
      <path d="M621.51,521.87c.39,.39,.77,1,.87,1.94,0,0,2.8-.6,4.15,2.27,.16,.34,.27,.7,.36,1.07,.29,1.18,1.65,5.71,6.41,10.11,1.89,1.74,4.09,3.1,6.44,4.15,2.98,1.34,8.37,4.45,8.37,9.53v2.87c0,.84-.54,1.58-1.33,1.83-2.33,.73-7.63,1.93-15.27,.92,0,0-8.89-.94-13.09-3.27,0,0-3.51-2.1-12.39-3.04,0,0-9.82-.94-10.29-3.04,0,0-.23-1.87,.7-6.31l2.34-9.82,1.4-6.31s.3-2.57,3.42-2.46l-.85,3.16s-.6,3.4,1.53,4.28c.32,.13,.67,.18,1.02,.16,.92-.03,3.1-.29,5.34-1.9,.17-.13,.34-.27,.5-.41,.55-.5,2.05-1.78,3.11-1.72,.5,.03,1-.09,1.34-.46l2.58-2.77s.51-.64,1.34-1.07c.66-.34,1.47-.22,1.99,.3Z" fill="#FFCF88"></path>
      <path d="M637.28,557.44c-1.76,0-3.71-.11-5.85-.4-.35-.04-9.02-.97-13.27-3.33-.05-.03-3.57-2.07-12.2-2.98-2.38-.23-10.22-1.15-10.72-3.43-.02-.13-.24-2.05,.7-6.52l2.34-9.83,1.4-6.31c.11-1,1.12-2.97,3.93-2.85l.63,.02-1.02,3.76h0s-.49,2.98,1.24,3.69c.23,.09,.5,.14,.82,.13,.81-.03,2.92-.26,5.07-1.8,.16-.11,.31-.24,.45-.37,.78-.72,2.25-1.92,3.48-1.85,.29,.02,.69-.02,.95-.3l2.58-2.77s.56-.7,1.48-1.17c.85-.44,1.91-.28,2.58,.39,.46,.47,.78,1.05,.93,1.73,1.23-.06,3.15,.41,4.19,2.61,.16,.34,.29,.72,.39,1.16,.3,1.23,1.64,5.59,6.26,9.86,1.72,1.59,3.84,2.96,6.3,4.06,3.24,1.45,8.66,4.68,8.66,9.98v2.87c0,1.06-.68,1.99-1.68,2.31-1.8,.57-5.08,1.33-9.63,1.33Zm-34.35-34.63c-1.98,.21-2.25,1.8-2.27,2l-1.41,6.36-2.34,9.83c-.9,4.26-.69,6.12-.69,6.14,.23,1.03,5.29,2.17,9.84,2.6,8.9,.94,12.46,3.02,12.6,3.11,4.06,2.25,12.8,3.2,12.89,3.21,7.48,1,12.65-.13,15.06-.9,.59-.19,.98-.73,.98-1.35v-2.87c0-4.75-5.06-7.72-8.07-9.07-2.56-1.15-4.77-2.57-6.57-4.24-4.83-4.46-6.24-9.06-6.56-10.36-.09-.38-.2-.69-.33-.97-1.15-2.46-3.49-2.01-3.59-1.99l-.54,.11-.06-.54c-.08-.68-.32-1.23-.73-1.64h0c-.36-.36-.94-.45-1.41-.21-.72,.37-1.18,.93-1.18,.93l-2.61,2.79c-.41,.44-1.02,.66-1.74,.62-.55-.03-1.64,.57-2.74,1.59-.17,.16-.35,.31-.54,.45-2.37,1.7-4.72,1.96-5.62,1.99-.46,.02-.87-.05-1.23-.2-2.47-1.02-1.86-4.67-1.83-4.83l.69-2.55Z" fill="#002346"></path>
    </g>
    <g>
      <path d="M622.17,511.17s-1.31,5.51-1.08,10.42c0,0-1.17-.7-2.92,1.05,0,0-4.2,.42-9.61,1.86-.49,.13-.97,.28-1.44,.45-1.11,.41-3.66,1.22-4.38,.5,0,0,3.3-11.12,1.88-18.77l7.47-1.1,10.08,5.6Z" fill="#f2b3c1"></path>
      <path d="M603.76,526.23c-.63,0-1.09-.14-1.38-.43l-.21-.21,.08-.29c.03-.11,3.25-11.1,1.87-18.54l-.09-.51,8.15-1.2,10.56,5.86-.09,.37c-.01,.05-1.29,5.5-1.07,10.28l.04,.93-.8-.48s-.89-.44-2.31,.98l-.13,.13-.18,.02s-4.23,.43-9.53,1.84c-.48,.13-.95,.27-1.4,.44-1.49,.54-2.67,.81-3.53,.81Zm-.43-1.03c.52,.12,1.75-.04,3.62-.73,.48-.17,.97-.33,1.48-.46,4.77-1.27,8.66-1.75,9.51-1.85,1.09-1.04,2.02-1.24,2.63-1.21-.09-4.06,.75-8.27,1.03-9.53l-9.61-5.33-6.8,1c1.08,6.92-1.31,16.1-1.87,18.11Z" fill="#002346"></path>
    </g>
    <g>
      <path d="M618.17,522.64l-2.68,2.87c-.29,.31-.71,.4-1.13,.33-.53-.08-1.51,.16-3.23,1.74,0,0-3.23,2.92-6.87,2.14,0,0-1.85-.5-1.57-3.86,.01-.18,.19-.3,.36-.24,.47,.15,1.57,.22,3.99-.65,.42-.15,.85-.3,1.29-.41,1.67-.44,6.13-1.55,9.84-1.92Z" fill="#e6e7e8"></path>
      <path d="M605.54,530.36c-.45,0-.9-.04-1.37-.14-.12-.03-2.27-.66-1.97-4.39,.02-.24,.14-.45,.34-.58,.2-.13,.44-.17,.67-.1,.3,.09,1.26,.22,3.67-.64,.44-.16,.88-.3,1.33-.42,1.74-.46,6.19-1.56,9.92-1.94l1.32-.13-3.58,3.84c-.38,.41-.95,.58-1.57,.48-.27-.04-1.09,.03-2.82,1.62-.12,.11-2.71,2.41-5.94,2.41Zm-2.36-4.19c-.13,2.63,1.17,3.06,1.23,3.08,3.3,.7,6.36-2.01,6.39-2.04,1.5-1.38,2.73-2.01,3.65-1.87,.17,.02,.48,.04,.68-.18l1.74-1.87c-3.33,.46-6.91,1.35-8.42,1.75-.42,.11-.83,.25-1.24,.4-1.79,.64-3.15,.89-4.04,.72Zm.02-.26h0s0,0,0,0Z" fill="#002346"></path>
    </g>
    <g>
      <path d="M597.01,407.26s-1.75-2.47-5.96-1.77l-8.65-.7s-5.38-1.4-9.12,.23c0,0-4.44,.94-3.98,10.99,0,0,1.17,12.39,.94,21.28,0,0-.47,10.99,.47,15.67,0,0,2.57,14.5,11.46,18.71,0,0,3.04,.94,5.14-.23l2.57-1.4s2.1-1.17,3.27-4.91c0,0,1.85-5.34,2.08-11.6,.04-1.12,.2-2.22,.45-3.31,.56-2.45,1.7-6.72,3.57-10.66,.46-.97,1.04-1.89,1.67-2.75,1.01-1.37,2.65-3.9,2.48-5.77-.05-.59,.11-1.18,.46-1.66l.11-.16c.37-.52,.27-1.27-.26-1.61-.22-.14-.51-.22-.89-.15l-8.5-3.02-3.04-8.89,2.81-7.01,2.81-.7,.12-.57Z" fill="#FFCF88"></path>
      <path d="M584.68,472.52c-1.42,0-2.59-.35-2.67-.38-9.08-4.3-11.7-18.5-11.8-19.1-.93-4.67-.49-15.32-.48-15.78,.23-8.75-.92-21.09-.93-21.21-.46-9.88,3.74-11.36,4.31-11.51,3.85-1.66,9.18-.3,9.41-.24l8.5,.68c4.42-.71,6.31,1.87,6.39,1.98l.12,.18-.22,1.09-2.86,.72-2.64,6.61,2.9,8.48,8.15,2.9c.4-.05,.79,.03,1.11,.24,.36,.23,.6,.6,.68,1.03,.08,.45-.02,.92-.29,1.3l-.11,.16c-.28,.39-.41,.86-.36,1.32,.18,1.93-1.3,4.39-2.57,6.11-.67,.91-1.2,1.78-1.63,2.67-1.88,3.96-3.02,8.31-3.53,10.56-.25,1.1-.4,2.18-.43,3.22-.23,6.26-2.09,11.69-2.11,11.74-1.21,3.87-3.41,5.13-3.5,5.18l-2.58,1.4c-.9,.5-1.93,.65-2.86,.65Zm-2.31-1.31s2.82,.82,4.69-.22l2.58-1.4s1.95-1.15,3.04-4.62c.02-.07,1.83-5.37,2.06-11.47,.04-1.1,.2-2.25,.46-3.4,.52-2.28,1.68-6.71,3.61-10.76,.45-.95,1.01-1.87,1.72-2.84,1.63-2.21,2.5-4.18,2.38-5.42-.07-.7,.13-1.41,.55-2l.11-.16c.11-.15,.15-.35,.12-.53-.03-.16-.12-.29-.24-.37-.14-.09-.31-.12-.52-.07l-.14,.03-8.86-3.15-3.18-9.29,2.97-7.42,2.75-.71c-.45-.5-2.09-1.95-5.34-1.41h-.06s-8.71-.7-8.71-.7c-.14-.03-5.34-1.35-8.88,.19l-.1,.03s-4.02,1.06-3.58,10.48c.01,.1,1.17,12.5,.94,21.31,0,.12-.46,10.99,.46,15.56,.03,.15,2.64,14.3,11.18,18.35h0Z" fill="#002346"></path>
    </g>
    <g>
      <path d="M604.02,426.18l-2.22,2.23s-2.65,1.42-8.13-.66c-.84-.32-1.58-.84-2.16-1.53-1.75-2.09-5.18-7.08-3.04-12.07,0,0,.94-1.87,3.04-3.27,0,0,1.17-.7,1.64-1.87l.94-1.64s.94-.7,1.64,0l5.38,11.93,2.92,6.89Z" fill="#e6e7e8"></path>
      <path d="M599.12,429.38c-1.38,0-3.25-.27-5.62-1.17-.92-.35-1.74-.93-2.36-1.68-1.69-2.02-5.39-7.29-3.12-12.59,.05-.11,1.03-2.03,3.22-3.49,.03-.02,1.05-.65,1.45-1.64l1.1-1.85c.44-.33,1.5-.75,2.29,.05l.1,.15,5.38,11.93,3.06,7.21-2.57,2.55c-.07,.04-1.03,.53-2.92,.53Zm-4.66-21.67l-.88,1.54c-.5,1.25-1.76,2.02-1.81,2.05-1.94,1.29-2.84,3.05-2.85,3.07-2.04,4.76,1.4,9.65,2.98,11.52,.52,.62,1.19,1.1,1.95,1.38,4.73,1.8,7.25,.89,7.66,.71l1.92-1.93-2.79-6.58-5.33-11.82c-.3-.23-.69-.05-.85,.05Z" fill="#002346"></path>
    </g>
    <g>
      <path d="M605.67,404.48s-2.93,2.41-9.94,2.88c0,0-4.21,3.98-1.64,10.52,0,0,4.68,8.65,9.12,8.42,0,0,.59,.15,.95-.37,.33-.47,.7-.9,1.18-1.23,1.11-.76,2.96-1.99,4.19-2.61l-1.64-16.6-2.22-1.01Z" fill="#f2b3c1"></path>
      <path d="M603.4,426.82c-.08,0-.16,0-.23-.02-.04,0-.09,0-.14,0-4.64,0-9.19-8.33-9.38-8.68-2.69-6.84,1.69-11.08,1.73-11.12l.13-.12h.18c6.74-.46,9.63-2.75,9.66-2.78l.24-.19,2.76,1.25,1.7,17.23-.31,.15c-1.23,.62-3.12,1.88-4.13,2.57-.37,.25-.7,.6-1.05,1.1-.33,.48-.81,.61-1.17,.61Zm-.14-1.02l.07,.02c.05,.01,.27,.04,.41-.17,.41-.59,.84-1.04,1.3-1.36,.96-.66,2.67-1.8,3.94-2.48l-1.58-15.98-1.69-.77c-.86,.59-3.88,2.36-9.78,2.79-.66,.7-3.59,4.26-1.39,9.85,.02,.03,4.44,8.11,8.47,8.11,.05,0,.1,0,.16,0h.08Z" fill="#002346"></path>
    </g>
    <g>
      <path d="M545.41,319.12c-.38,.18-2.82,.81-12.12-5.53l3.62-2.46s4.18,3.02,8.51,7.9c.02,.03,.02,.07-.01,.08Z" fill="#FFCF88"></path>
      <path d="M544.76,319.73c-1.47,0-4.72-.93-11.75-5.72l-.61-.41,4.52-3.06,.28,.21s4.27,3.11,8.59,7.97l.17,.19-.09,.54-.25,.14c-.17,.08-.45,.15-.86,.15Zm-10.58-6.14c6.22,4.17,9.09,5.01,10.28,5.12-3.4-3.71-6.61-6.25-7.56-6.96l-2.72,1.84Zm11.01,5.08h0Z" fill="#002346"></path>
    </g>
    <g>
      <path d="M586.84,290.91v3.51s-.31,1.33-.58,3.04c-.28,1.83-.84,3.6-1.44,5.35-.14,.42-.26,.96-.32,1.66,0,0-7.72,19.41,3.27,39.98,0,0,5.85,11.22,27.83,25.02l.23,18.47s0,9.82-1.4,11.69l-8.65,3.98s-3.4,15.43,6.11,21.48c.34,.22,.58,.57,.63,.98,.04,.37,.03,.86-.19,1.39,0,0-.94,2.34,0,3.98,0,0,.23,.47-.47,.7,0,0-2.1,1.17-.7,3.51,0,0,.7,1.4-.23,2.81,0,0-1.4,.7-1.17,5.38,0,0-.94,1.64-1.4,6.31l-2.34,13.8s-1.17,12.86-.94,23.15c0,0-.23,14.26-1.87,18.94,0,0,10.99,5.61,20.58,5.14l2.81-14.26s2.34-5.14,2.1-10.76l4.44-18.94s5.61-23.85,3.98-26.89c0,0-.23-.7,.7-1.17,0,0,.94-.23,.7-1.4,0,0,0-.7-1.17-1.17,0,0-.47-.47-.08-.87,.13-.13,.25-.27,.31-.45,.04-.12,.07-.26,.07-.42,0-.27,.12-.53,.31-.72,.41-.41,1.06-1.15,1.47-2.01,.2-.42,.45-.81,.73-1.17,.44-.55,.97-1.51,.59-2.66-.33-.99-.4-2.06-.37-3.1,0-.16,0-.34,0-.52v-.08c0-1.58,.25-3.15,.63-4.68,.12-.49,.23-1.09,.31-1.79,0,0,.23-1.87,.7-3.27l17.54-3.98s24.08-3.98,24.32-16.6c0,0,1.87-10.76-10.29-22.68l-18.24-18,1.64-29.23-11.69-33.44-25.25-9.59-33.44,6.31,.23,3.27Z" fill="#fbe493"></path>
      <path d="M622.61,511.71c-9.29,0-19.2-5-19.63-5.23l-.39-.2,.14-.41c1.59-4.55,1.84-18.64,1.84-18.78-.23-10.18,.92-23.06,.94-23.19l2.34-13.83c.4-4.01,1.15-5.84,1.39-6.34-.18-4.1,.87-5.31,1.31-5.63,.67-1.1,.17-2.18,.15-2.22-.5-.82-.65-1.65-.45-2.43,.31-1.14,1.31-1.71,1.35-1.74,.13-.05,.2-.08,.23-.1-.96-1.82-.02-4.22,.02-4.32,.15-.37,.2-.76,.16-1.15-.03-.25-.17-.47-.4-.61-9.7-6.16-6.47-21.37-6.33-22.01l.05-.24,8.75-4.02c.91-1.47,1.24-7.5,1.24-11.29l-.23-18.19c-21.66-13.64-27.53-24.61-27.77-25.07-10.63-19.91-3.82-39-3.32-40.33,.06-.65,.17-1.23,.34-1.71,.54-1.57,1.13-3.4,1.42-5.27,.24-1.53,.51-2.75,.57-3.02v-3.43l-.26-3.7,34.01-6.42,25.6,9.72,.08,.22,11.72,33.53v.1s-1.63,29-1.63,29l18.08,17.85c12.21,11.97,10.51,22.67,10.43,23.12-.23,12.82-23.73,16.84-24.73,17.01l-17.23,3.91c-.39,1.3-.59,2.89-.6,2.91-.06,.64-.17,1.26-.32,1.85-.42,1.66-.62,3.15-.62,4.56,0,.27,0,.45,0,.61-.04,1.19,.07,2.12,.34,2.93,.35,1.05,.11,2.16-.67,3.14-.26,.33-.49,.69-.67,1.07-.43,.9-1.09,1.66-1.57,2.15-.11,.11-.17,.24-.16,.36,0,.2-.03,.4-.1,.6-.1,.26-.26,.45-.42,.62,0,.03,0,.08,.03,.12,1.32,.58,1.36,1.48,1.36,1.58,.22,1.06-.46,1.7-1.02,1.87-.49,.26-.41,.54-.41,.54,1.64,3.04-3.38,24.7-3.96,27.16l-4.43,18.87c.21,5.4-1.86,10.26-2.13,10.86l-2.87,14.59-.39,.02c-.4,.02-.8,.03-1.2,.03Zm-18.8-5.93c1.98,.95,11.27,5.19,19.55,4.92l2.76-13.99c.02-.05,2.29-5.11,2.06-10.53v-.07s4.46-19.01,4.46-19.01c2.24-9.51,5.16-24.43,4.02-26.54-.16-.46-.13-1.33,.92-1.85l.1-.04c.13-.04,.46-.21,.33-.82-.01-.09-.06-.48-.86-.8l-.17-.11c-.4-.4-.57-1.07-.1-1.57,.09-.1,.18-.19,.21-.28,.03-.08,.04-.15,.04-.23,0-.39,.16-.78,.45-1.08,.35-.35,.99-1.06,1.38-1.88,.21-.45,.48-.87,.8-1.26,.4-.49,.81-1.28,.5-2.19-.31-.92-.43-1.97-.39-3.28,0-.16,0-.33,0-.5,0-1.57,.21-3.14,.65-4.88,.13-.54,.23-1.11,.29-1.72,.01-.09,.25-1.95,.72-3.38l.09-.27,17.81-4.04c.27-.04,23.71-4.06,23.93-16.12,.03-.18,1.67-10.74-10.14-22.32l-18.4-18.16,1.64-29.35-11.58-33.12-24.9-9.45-32.86,6.2,.2,2.87v3.62s-.33,1.33-.58,3c-.3,1.95-.91,3.83-1.46,5.44-.14,.42-.24,.94-.29,1.54l-.03,.14c-.08,.19-7.5,19.44,3.25,39.56,.06,.12,6.07,11.29,27.65,24.83l.23,.14,.24,18.75c0,1.03-.04,10.05-1.5,12l-.08,.1-8.54,3.92c-.37,1.96-2.53,15.33,5.94,20.71,.48,.3,.79,.79,.85,1.34,.07,.56,0,1.11-.22,1.64,0,.02-.83,2.14-.03,3.54,.04,.08,.19,.41,.03,.78-.08,.2-.29,.48-.77,.64,.02,0-.61,.39-.8,1.1-.13,.5,0,1.07,.36,1.68,.05,.1,.84,1.71-.25,3.34l-.07,.11-.12,.06h0s-1.1,.78-.89,4.91v.15s-.06,.13-.06,.13c0,.01-.89,1.65-1.34,6.12l-2.34,13.83c0,.09-1.16,12.91-.93,23.05,0,.59-.24,13.64-1.76,18.69Z" fill="#002346"></path>
    </g>
    <g>
      <path d="M695.8,234.79s4.56,2.69,4.91-2.81c0,0,.1-6.05-.18-9.34,0,0-1.34,4.54-4.73,12.14Z" fill="#FFCF88"></path>
      <path d="M698.09,235.95c-1.29,0-2.48-.69-2.54-.73l-.38-.23,.18-.41c3.33-7.48,4.69-12.03,4.7-12.08l.75-2.55,.23,2.64c.28,3.28,.19,9.14,.19,9.39-.12,1.87-.71,3.08-1.75,3.63-.44,.23-.91,.32-1.37,.32Zm-1.64-1.39c.59,.26,1.7,.63,2.54,.19,.72-.38,1.13-1.32,1.22-2.79,0-.03,.06-3.55-.04-6.65-.72,2.02-1.92,5.2-3.72,9.26Z" fill="#002346"></path>
    </g>
    <g>
      <path d="M599.58,184.64s-.35,15.55-7.6,19.76c0,0,19.41,11.22,26.42,0,0,0-1.24-1.05-2.41-2.72-1.58-2.26-2.15-5.08-1.64-7.79l.38-2.04s-9.56,1.15-15.15-7.21Z" fill="#f2b3c1"></path>
      <path d="M608.43,209.92c-7.75,0-16.16-4.79-16.7-5.1l-.75-.43,.75-.43c6.92-4.02,7.35-19.18,7.35-19.34l.04-1.58,.88,1.31c5.34,7.99,14.58,7,14.67,6.99l.67-.08-.5,2.71c-.48,2.6,.09,5.3,1.56,7.41,1.12,1.6,2.31,2.61,2.32,2.62l.33,.28-.23,.37c-2.47,3.95-6.35,5.26-10.4,5.26Zm-15.47-5.57c3.5,1.83,18.71,9.07,24.79,.12-.46-.43-1.33-1.32-2.17-2.52-1.62-2.33-2.25-5.3-1.73-8.16l.26-1.41c-2.19,.06-9.26-.21-14.11-6.31-.27,3.84-1.5,14.28-7.05,18.29Z" fill="#002346"></path>
    </g>
    <g>
      <path d="M708.2,157.16l-2.1-3.74s-3.07-.45-2.47,4.34l2.24,1.51,2.34-2.1Z" fill="#f2b3c1"></path>
      <path d="M705.9,159.9l-2.75-1.85-.03-.23c-.24-1.94,.06-3.34,.9-4.17,.91-.89,2.09-.73,2.14-.73l.24,.04,2.42,4.3-2.93,2.63Zm-1.81-2.43l1.72,1.16,1.75-1.58-1.77-3.15c-.26,.01-.71,.1-1.08,.46-.56,.56-.78,1.63-.62,3.1Z" fill="#002346"></path>
    </g>
    <g>
      <path d="M611.31,191.9c1.16,.11,2.31,.08,3.42-.05,7.2-.9,13.05-6.7,13.74-14.22l.51-5.58,1.44-15.65c.08-.9,.09-1.79,.02-2.67,0-.13-.02-.25-.03-.38,0-.1-.02-.19-.03-.28-.51-4.26-2.97-7.82-6.25-10.37,0,0,.23-.24,.22-.24-.17-.12-.5,.05-.5,.05-8.12-3.43-15.16-1.57-20.56,1.54-2.38,2.49-3.97,5.76-4.3,9.46l-1.95,21.23c-.8,8.68,5.59,16.36,14.27,17.16Z" fill="#f2b3c1"></path>
      <path d="M612.77,192.47c-.5,0-1.01-.02-1.51-.07-8.94-.82-15.54-8.77-14.72-17.71l1.95-21.23c.34-3.7,1.88-7.07,4.44-9.76l.11-.09c6.86-3.96,13.86-4.52,20.81-1.65,.22-.07,.53-.1,.79,.08l.1,.09c.14,.17,.13,.33,.08,.47,3.44,2.81,5.59,6.48,6.06,10.4,.01,.09,.03,.2,.03,.31l.03,.38c.07,.91,.06,1.84-.02,2.75l-1.95,21.23c-.7,7.56-6.66,13.73-14.18,14.67-.67,.08-1.35,.12-2.02,.12Zm-9.16-48.02c-2.38,2.51-3.8,5.66-4.12,9.1l-1.95,21.23c-.77,8.39,5.43,15.85,13.82,16.62h0c1.1,.1,2.21,.08,3.31-.05,7.06-.88,12.66-6.67,13.31-13.77l1.95-21.23c.08-.86,.09-1.73,.02-2.58l-.03-.37c0-.1-.02-.18-.03-.26-.46-3.81-2.61-7.37-6.07-10.05l-.16-.12c-6.69-2.82-13.43-2.32-20.05,1.48Z" fill="#002346"></path>
    </g>
    <g>
      <path d="M578.65,192s-4.79-5.73,2.34-9.35c0,0-4.68-9.35,2.34-17.77l10.41-12.77s3.64-4.42,9.55-7.83c5.34-3.08,12.52-5.16,20.53-1.88,.18,.07,.36,.17,.52,.28,0,0,0,0,0,0,0,0,0,0,0,0,1.12,.81,5.32,4.01,6.02,10.37,.01,.09,.02,.19,.03,.28,.01,.13,.02,.25,.03,.38,.07,.87,.06,1.77-.02,2.67l-1.44,15.65s1.24,4.11-.23,9.11c0,0,26.36-24.46,17.94-39.89,0,0-5.38-10.76-26.25-6.71-1.74,.34-3.59,.78-5.55,1.34l-26.17,6.65c-1.37,.35-2.7,.82-3.98,1.42-2.17,1.02-5.39,2.81-8.44,5.56-3.58,3.23-6.9,7.79-7.95,13.96,0,0-5.14,21.51,10.29,28.53Z" fill="#fbe493"></path>
      <path d="M580.43,193.36l-1.99-.9c-15.63-7.1-10.62-28.88-10.57-29.1,.91-5.4,3.64-10.19,8.1-14.22,3.09-2.79,6.36-4.6,8.56-5.64,1.3-.61,2.67-1.1,4.07-1.45l26.17-6.65c1.92-.55,3.8-1,5.58-1.34,21-4.07,26.56,6.53,26.79,6.98,8.5,15.58-16.96,39.47-18.05,40.48l-1.33,1.23,.51-1.74c1.41-4.8,.24-8.79,.23-8.83l-.03-.09,1.45-15.74c.08-.86,.09-1.73,.02-2.58l-.03-.37c0-.1-.02-.18-.03-.26-.61-5.51-3.91-8.65-5.82-10.04l-.04-.03c-.12-.08-.25-.15-.39-.21-6.56-2.68-13.32-2.06-20.09,1.85-5.76,3.32-9.38,7.67-9.42,7.71l-10.41,12.77c-6.73,8.08-2.32,17.14-2.28,17.23l.22,.44-.44,.23c-2.04,1.04-3.24,2.34-3.55,3.88-.5,2.42,1.36,4.69,1.37,4.71l1.4,1.68Zm48.72-59.21c-2.52,0-5.37,.26-8.61,.89-1.75,.34-3.6,.78-5.51,1.33l-26.19,6.66c-1.34,.34-2.65,.81-3.89,1.39-2.14,1-5.32,2.77-8.31,5.47-4.29,3.87-6.91,8.47-7.79,13.67-.05,.23-4.52,19.7,8.43,27.18-.49-1.02-.92-2.44-.6-3.96,.36-1.74,1.59-3.2,3.67-4.35-.82-2-3.67-10.35,2.6-17.87l10.41-12.77c.15-.19,3.77-4.53,9.69-7.95,6.95-4.02,14.21-4.68,20.97-1.91,.22,.09,.42,.2,.62,.34l.08,.06c2.08,1.53,5.52,4.88,6.16,10.67,.01,.09,.02,.19,.03,.3l.03,.38c.07,.91,.06,1.84-.02,2.75l-1.43,15.55c.16,.59,.91,3.66,.16,7.59,5.07-5.08,23.7-25.08,16.61-38.08-.05-.1-3.91-7.35-17.11-7.35Z" fill="#002346"></path>
    </g>
    <path d="M619.11,134.72s-7.25-2.57-11.46,.7c0,0-4.52-2.04-12.67,5.53,0,0,18.98-4.83,24.12-6.23Z" fill="#2f2e41"></path>
    <g>
      <path d="M695.8,234.79s4.21-7.72,6.78-20.11c0,0,2.1-12.39,4.68-20.34,0,0,2.57-8.65,3.27-11.93,0,0,1.87-8.65,5.38-14.97,0,0,2.81-3.74-.47-6.08l-7.25-4.21s-2.57-1.64-3.74,.7c0,0-1.64-.47-2.81,.47,0,0-1.4,.94-.94,2.57,0,0-1.4-.23-2.34,.94,0,0-.94,1.4,0,2.57,0,0-1.87,.94-.7,3.04l.94,1.87s.94,1.87,2.34,2.1l-1.87,7.95s-.7,3.27,.7,5.61c0,0-.94,7.25-3.27,13.33,0,0-3.51,10.29-9.35,19.17l-.58,1.02c-.32,.56-.55,1.16-.7,1.78,0,.03-.01,.05-.02,.08-.86,3.94,.61,8.03,3.72,10.6,1.48,1.22,3.68,2.8,6.23,3.82Z" fill="#f2b3c1"></path>
      <path d="M696.03,235.42l-.41-.16c-2.65-1.06-4.92-2.71-6.36-3.9-3.29-2.73-4.78-6.98-3.89-11.09,.17-.75,.42-1.4,.77-2l.58-1.02c5.76-8.75,9.28-18.99,9.31-19.09,2.1-5.46,3.07-11.95,3.23-13.07-1.37-2.46-.7-5.68-.67-5.82l1.77-7.5c-1.33-.54-2.15-2.15-2.19-2.23l-.94-1.87c-.43-.78-.55-1.53-.33-2.22,.17-.55,.52-.94,.81-1.18-.65-1.31,.22-2.65,.26-2.71,.69-.87,1.57-1.11,2.16-1.16-.07-1.24,.74-2.15,1.25-2.48,.97-.78,2.2-.71,2.83-.61,.37-.57,.85-.94,1.45-1.1,1.36-.38,2.76,.5,2.82,.54l7.23,4.2c1.04,.74,1.62,1.64,1.79,2.71,.32,2.08-1.11,4.02-1.17,4.11-3.39,6.12-5.27,14.69-5.29,14.77-.7,3.25-3.18,11.61-3.28,11.96-2.53,7.84-4.64,20.16-4.66,20.28-2.56,12.34-6.79,20.19-6.84,20.27l-.21,.39Zm4.38-74.04c-.37,0-1.1,.09-1.64,.77,0,0-.69,1.08,0,1.95l.39,.48-.55,.28s-.57,.3-.75,.9c-.13,.42-.04,.91,.27,1.45l.95,1.89c.23,.46,1.03,1.68,1.97,1.83l.53,.09-1.99,8.47s-.64,3.1,.64,5.24l.09,.15-.02,.17c0,.07-.97,7.38-3.3,13.44-.03,.08-3.59,10.43-9.4,19.27l-.57,.99c-.3,.52-.51,1.07-.64,1.65-.83,3.82,.53,7.69,3.53,10.18,1.31,1.08,3.33,2.56,5.68,3.57,.87-1.73,4.32-8.96,6.52-19.57,.02-.11,2.14-12.5,4.69-20.4,.02-.08,2.57-8.66,3.26-11.88,.02-.09,1.93-8.8,5.43-15.1,.05-.07,1.28-1.75,1.02-3.41-.12-.79-.58-1.47-1.34-2.02l-7.21-4.18s-1.11-.69-2.04-.43c-.43,.12-.76,.42-1.01,.92l-.18,.37-.4-.11s-1.41-.38-2.36,.38c-.08,.06-1.13,.79-.77,2.04l.22,.76-.78-.13s-.1-.01-.23-.01Z" fill="#002346"></path>
    </g>
    <g>
      <path d="M523.24,305.64c.13,.02,.27,.04,.4,.06,4.58,.69,9.18,3.18,12.96,5.83,4.81,3.36,8.31,6.97,8.81,7.5l.11-.02,9.54-16.05s11.68-12.51,14.25-23.5c0,0,3.27-6.08,2.57-13.33,0,0,.94-3.74,.47-6.08l.94-2.1s1.47,8.61,4.88,16.43c1.36,3.11,2.58,6.29,3.7,9.5l1.47,4.24s.47,2.81,3.51,2.81c0,0,0-1.4,1.87-1.64l20.99-.78c2.18-.08,4.34-.37,6.48-.77,1.4-.26,3.39-.44,5.73-.09l23.38,3.27v-41.86s4.44,2.57,11.46,3.04c0,0,7.01,1.4,10.05,1.87,0,0,6.55,.94,10.76-.47,0,0,6.34,2.17,11.37,.3,1.17-.44,2.16-1.27,2.82-2.33,1.23-1.98,3.56-6.07,5.48-11.44,.3-.83,.74-1.6,1.34-2.25l1.28-1.4c.29-.31,.52-.68,.66-1.08,.29-.81,.66-2.22,.19-3.32,0,0,0,5.14-4.91,2.81,0,0-13.79-5.21-9.23-16.28l-6.43,11.14-1.87-1.64s-2.1-2.1-5.14-.94c0,0-.94-1.87-4.68-3.27,0,0-1.4-1.87-4.21-2.81l-1.17-.7s-1.17-2.57-5.61-3.51c0,0-.47-1.17-.7-2.81,0,0,0-3.04-4.91-5.61l-3.98-1.87s-1.4-3.04-9.59-3.51l-19.88,1.4s-6.31,11.22-26.42,0l-16.08-6.39s-2.62,2.42-9.64,5.22c0,0-11.69,3.98-11.69,11.93,0,0-.79,11-2.72,18.6-.44,1.71-.79,3.44-1.04,5.2-.63,4.5-1.68,13.07-1.84,21.39-.03,1.44-.11,2.87-.26,4.3l-.96,8.96c-.11,1.03-.8,1.92-1.79,2.25-1.32,.43-3.09,1.33-3.79,3.14,0,0-.28,.56-.51,2.53-.13,1.1-.89,2.02-1.95,2.34s-2.41,1.14-3.38,3.07l-3,6.16c-.72,1.47-1.72,2.79-3.01,3.8-.67,.52-1.47,1.36-2.17,2.67l-4.91,6.08Z" fill="#FFCF88"></path>
      <path d="M545.34,319.54l-.29-.17c-.63-.67-4.04-4.16-8.73-7.43-4.62-3.23-8.92-5.17-12.75-5.74-.14-.02-.26-.04-.39-.06l-.89-.11,5.48-6.78c.58-1.1,1.36-2.05,2.25-2.75,1.18-.91,2.14-2.13,2.87-3.62l3-6.16c1.07-2.15,2.6-3,3.68-3.33,.87-.27,1.49-1.02,1.6-1.92,.24-2,.53-2.63,.56-2.7,.74-1.94,2.63-2.92,4.08-3.39,.79-.26,1.36-.97,1.45-1.82l.96-8.96c.14-1.36,.23-2.79,.26-4.26,.16-8.4,1.22-17.05,1.84-21.45,.24-1.69,.58-3.41,1.05-5.25,1.9-7.47,2.69-18.4,2.7-18.51,0-8.18,11.54-12.2,12.03-12.36,6.8-2.72,9.44-5.1,9.46-5.12l.23-.21,.29,.11,16.08,6.39c19.5,10.88,25.74,.33,25.8,.22l.13-.23,20.14-1.42c7.41,.42,9.53,2.92,9.98,3.62l3.83,1.8c5.14,2.69,5.2,5.93,5.2,6.06,.16,1.08,.44,1.97,.58,2.38,3.87,.9,5.29,3,5.61,3.58l1,.6c2.51,.85,3.93,2.4,4.3,2.84,2.83,1.08,4.1,2.44,4.58,3.09,3.09-.96,5.2,1.09,5.29,1.18l1.39,1.21,6.13-10.61,.89,.44c-1.13,2.75-1.17,5.35-.14,7.75,2.27,5.24,9.02,7.85,9.08,7.88,1.37,.65,2.39,.75,3.09,.31,1.11-.7,1.14-2.63,1.14-2.65v-2.43l.96,2.23c.52,1.2,.19,2.67-.18,3.68-.16,.45-.42,.88-.76,1.25l-1.28,1.4c-.54,.59-.95,1.29-1.24,2.08-1.94,5.43-4.3,9.56-5.53,11.54-.72,1.16-1.81,2.06-3.07,2.53-4.75,1.77-10.49,.09-11.54-.24-4.27,1.35-10.56,.47-10.83,.44-3.02-.46-10.01-1.86-10.08-1.88-5.42-.36-9.3-1.96-10.86-2.71v41.61l-23.95-3.35c-2.35-.35-4.32-.15-5.57,.08-2.4,.45-4.54,.71-6.55,.78l-20.99,.78c-1.37,.17-1.39,1.1-1.39,1.14v.5h-.5c-2.74,0-3.81-2.11-4-3.22l-1.45-4.16c-1.2-3.43-2.4-6.53-3.68-9.46-2.54-5.81-4.02-12.11-4.61-14.97l-.23,.51c.39,2.25-.34,5.48-.48,6.05,.65,6.98-2.25,12.78-2.61,13.47-2.55,10.78-13.46,22.7-14.32,23.62l-9.63,16.2-.49,.08Zm-21.17-14.26c3.86,.67,8.14,2.64,12.72,5.84,4.14,2.89,7.3,5.95,8.48,7.15l9.32-15.66c.12-.12,11.61-12.54,14.12-23.27l.05-.12c.03-.06,3.19-6.04,2.51-13.04v-.09s.01-.08,.01-.08c0-.04,.9-3.66,.46-5.86l-.03-.16,1.67-3.76,.28,1.63c.01,.09,1.5,8.64,4.85,16.31,1.29,2.96,2.51,6.08,3.71,9.53l1.47,4.24c.04,.17,.42,2.22,2.62,2.45,.21-.65,.82-1.44,2.22-1.61l21.04-.78c1.96-.07,4.06-.32,6.41-.76,1.32-.25,3.41-.46,5.89-.09l22.81,3.19v-42.15l.75,.43s4.44,2.52,11.24,2.97c.13,.02,7.1,1.42,10.1,1.88,.06,0,6.48,.9,10.52-.45l.16-.05,.16,.05c.06,.02,6.23,2.09,11.03,.31,1.05-.39,1.97-1.15,2.57-2.12,1.21-1.95,3.52-6.01,5.44-11.35,.33-.92,.81-1.73,1.44-2.42l1.28-1.4c.25-.28,.44-.58,.56-.91,0,0,0,0,0,0-.13,.13-.28,.25-.45,.35-1.01,.63-2.36,.56-4.02-.23-.25-.09-7.16-2.76-9.61-8.39-.69-1.58-.95-3.24-.79-4.96l-4.93,8.53-2.33-2.04c-.1-.1-1.95-1.88-4.64-.85l-.42,.16-.2-.41s-.93-1.73-4.41-3.03l-.14-.05-.09-.12s-1.36-1.76-3.97-2.63l-.1-.05-1.3-.78-.06-.14c-.04-.09-1.15-2.36-5.26-3.23l-.26-.06-.1-.25c-.02-.05-.49-1.24-.73-2.92,0-.09-.11-2.86-4.65-5.24l-4.12-1.94-.08-.17s-1.47-2.78-9.16-3.22l-19.56,1.39c-1.1,1.59-8.3,10.37-26.95-.04l-15.74-6.25c-.8,.65-3.62,2.74-9.55,5.11-.14,.05-11.38,3.96-11.38,11.46,0,.15-.81,11.17-2.73,18.72-.46,1.81-.8,3.49-1.03,5.14-.62,4.38-1.67,12.98-1.83,21.33-.03,1.5-.12,2.96-.26,4.35l-.96,8.96c-.13,1.24-.97,2.29-2.13,2.67-1.24,.41-2.86,1.23-3.48,2.84-.02,.04-.27,.6-.48,2.41-.15,1.29-1.06,2.38-2.3,2.76-1.31,.4-2.35,1.35-3.08,2.82l-3,6.16c-.79,1.63-1.85,2.97-3.15,3.97-.79,.61-1.47,1.45-2.04,2.51l-4.42,5.48Z" fill="#002346"></path>
    </g>
    <g>
      <polygon points="688.59 256.75 645.76 253.5 648.1 325.05 673.82 327.16 688.59 256.75" fill="#fff"></polygon>
      <path d="M674.22,327.69l-26.6-2.18-2.37-72.55,43.95,3.33-14.97,71.4Zm-25.63-3.1l24.84,2.03,14.56-69.42-41.7-3.16,2.31,70.55Z" fill="#002346"></path>
    </g>
    <g>
      <polygon points="638.05 327.86 648.1 325.05 645.73 254.81 642.26 254.67 638.05 327.86" fill="#fff"></polygon>
      <path d="M637.51,328.53l4.28-74.38,4.43,.18,2.4,71.09-11.11,3.1Zm5.22-73.34l-4.14,72,9-2.51-2.34-69.38-2.52-.11Z" fill="#002346"></path>
    </g>
    <g>
      <path d="M638.23,327.87l17.8,1.16s.03-.01,.03-.03l.33-3.24s-.01-.03-.03-.03l-8.25-.67s0,0-.01,0l-9.88,2.76s-.03,.06,0,.06Z" fill="#fff"></path>
      <path d="M656.5,329.52h-.51s-18.22-1.18-18.22-1.18l-.12-.87,.43-.15,9.98-2.79,.12,.02,8.42,.68,.29,.33-.02,.24-.38,3.71Zm-15.49-1.98l14.59,.95,.24-2.31-7.69-.62-7.14,1.99Z" fill="#002346"></path>
    </g>
    <path d="M667.51,257.01c-.06,0-.12-.01-.18-.04-.24-.1-.35-.37-.25-.61l9.35-22.21c.24-.56,1.49-3.33,2.72-3.69,.25-.08,.51,.07,.58,.32,.07,.25-.07,.51-.32,.58-.54,.16-1.52,1.76-2.12,3.16l-9.35,22.21c-.08,.18-.25,.29-.43,.29Z" fill="#002346"></path>
    <g>
      <g>
        <polygon points="516.22 378.83 507.86 376.08 510.61 380.7 493.77 459.27 510.14 451.55 516.22 378.83" fill="#FFCF88"></polygon>
        <path d="M493.07,460.15l.21-.99,16.79-78.37-3.33-5.61,10.01,3.3-.03,.39-6.1,73.01-17.54,8.27Zm15.9-83.18l2.17,3.65-16.67,77.77,15.19-7.16,6.02-72.04-6.72-2.22Z" fill="#002346"></path>
      </g>
      <g>
        <polygon points="493.77 459.27 450.75 430.04 485.36 365.04 510.61 380.7 493.77 459.27" fill="#FFCF88"></polygon>
        <path d="M494.11,460.1l-44.01-29.9,35.07-65.87,26.01,16.13-.07,.34-16.99,79.29Zm-42.71-30.22l42.04,28.56,16.61-77.5-24.5-15.2-34.14,64.14Z" fill="#002346"></path>
      </g>
      <g>
        <path d="M516.13,378.8s.02-.01,.01-.02l-10.68-6.96-17.24-10.72s-.03,0-.02,.02l5.3,6.46s0,.02-.01,.02l-8.05-2.53s-.02,.01-.01,.02l25.13,15.59s.02,0,.02-.02l-2.71-4.55s0-.02,.01-.02l8.24,2.72Z" fill="#FFCF88"></path>
        <path d="M510.64,381.3l-.34-.2-25.5-15.82,.37-.82,.44,.13,6.48,2.04-4.53-5.52,.56-.67,.38,.24,17.23,10.71,11.04,7.2-.35,.81-.45-.12-7-2.31,2.25,3.78-.58,.55Zm-21.64-14.6l20.14,12.5-1.87-3.13,.43-.56,.34,.1,4.7,1.55-7.55-4.92-14.72-9.15,3.67,4.46-.43,.63-4.72-1.48Z" fill="#002346"></path>
      </g>
    </g>
    <path d="M497.75,363.63c-.1,0-.19-.03-.28-.09-.21-.15-.25-.44-.1-.65,4.35-5.95,6.46-11.98,6.48-12.04,3.56-8.24-2.18-13.08-2.43-13.28-.2-.16-.23-.46-.07-.66,.16-.2,.46-.23,.66-.07,.07,.05,6.54,5.47,2.71,14.34,0,.03-2.17,6.18-6.6,12.25-.09,.13-.23,.19-.38,.19Z" fill="#002346"></path>
    <path d="M497.75,362.93c-.09,0-.18-.03-.26-.08-.21-.14-.27-.43-.13-.65,3.18-4.78,5.06-13.77,5.08-13.86,1.53-7.21-.92-8.92-.95-8.93-.21-.14-.28-.43-.14-.64,.14-.22,.42-.28,.64-.15,.13,.08,3.06,1.97,1.37,9.92-.08,.37-1.93,9.26-5.21,14.19-.09,.14-.24,.21-.39,.21Z" fill="#002346"></path>
    <path d="M493.19,338.96l.1,4.48c0,.21,.03,.42,.07,.63l.51,3.08,2.91,2.25,1.19-7.5s-.22-.47-.22-1.64c0,0-2.34,.23-3.51-1.17,0,0-.38-.05-1.05-.12Z" fill="#002346"></path>
    <polygon points="511.78 355.22 516.58 363.36 512.95 361.01 510.49 352.99 511.78 355.22" fill="#002346"></polygon>
    <path d="M506.87,368.08s2.03-18.22-1.44-23.49c0,0-.43-5.04-4.17-7.61l.07,3.13s2.27-.09,2.04,8.8l-1.17,15.9,4.68,3.27Z" fill="#FFCF88"></path>
    <path d="M491.62,335.68l-3.94,5.54s-.92,3.64-1.16,5.66l5.61-9.67-.51-1.53Z" fill="#002346"></path>
    <path d="M614.34,193.91l.38-2.06h0c7.2-.91,13.05-6.71,13.74-14.23l.51-5.58c.19,.76,1.23,4.18-.23,9.11-.86,2.9-.44,6.04,.85,8.78,.9,1.91,2.36,4.01,4.7,6.04,0,0,1.39,1.39,2.59,3.15,.68,1,1.51,1.88,2.4,2.71,.57,.53,1.13,1.42,1.24,2.91,.11,1.58,.43,3.13,1,4.61,.09,.22,.17,.45,.23,.67,.31,1,.74,1.95,1.27,2.86,.98,1.68,2.24,4.7,1.79,8.58,0,0-.23,5.85-4.91,7.95l-.04-.04c-5.59,3.08-13.17-2.65-13.17-2.65,2.49-1.02,4.53-2.34,6.08-3.57,.14-.23,.39-.48,.82-.75h0c1.33-1.33,1.08-3.54-.51-4.56-1.64-1.05-3.54-2.57-4.87-4.56,0,0-.5-.35-1.09-.96-2.22-2.32-4.57-4.5-7.08-6.5-1.35-1.08-2.74-2.37-3.84-3.81-1.75-2.29-2.39-5.25-1.87-8.09Z" fill="#002346"></path>
    <path d="M625.36,143.19c-.81-.65-1.74-1.14-2.72-1.49-7.02-2.44-13.54-.65-18.41,1.84-4.06,2.08-7.6,5.03-10.49,8.56l-10.41,12.77c-7.01,8.65-2.34,17.77-2.34,17.77-7.25,3.51-2.34,9.35-2.34,9.35-3.74,2.34-2.81,7.95-2.81,7.95l.7,6.78c-1.4,6.78,4.91,11.93,4.91,11.93,13.09,7.72,20.11-2.34,20.11-2.34-10.52-4.21-9.59-11.93-9.59-11.93,11.22-7.25,7.48-35.54,7.48-35.54,.05-3.79,.39-6.97,.9-9.63,1.34-7.1,6.75-12.76,13.76-14.53,.13-.03,.27-.07,.4-.1,1.54-.39,3.14-.45,4.71-.17h0c10.52,2.1,11.2,11.97,11.2,11.97,0,0,1.6-7.84-5.07-13.2Z" fill="#002346"></path>
    <g>
      <path d="M492.38,328.29c1.16,1.13,1.16,4.01,1.16,4.01,3.04-.23,3.04-5.61,3.04-5.61l1.33-.95c.12-.08,.28,.01,.26,.16l-.42,3.36,1.17,2.34c6.55,2.1,6.31,4.68,6.31,4.68,.23,1.64,1.64,2.57,1.64,2.57,1.78,1.25,2.07,2.22,2.11,2.62,0,.07,.09,.1,.14,.05l2.66-2.66c1.4-1.4,3.51-7.25,3.51-7.25,1.64-4.21,2.57-5.38,2.57-5.38,2.1-2.81,6.55-6.55,6.55-6.55l12.19-8.12v-.03c-3.78-2.65-8.38-5.14-12.95-5.83l-7.65,6.72c-2.1,1.4-6.08,3.27-6.08,3.27l-3.98,1.64c-2.81,1.4-6.31,2.1-6.31,2.1-2.81,.47-3.98,1.87-3.98,1.87l-3.51,3.74c-.74,.89-.54,1.88-.29,2.48,.12,.29,.32,.54,.54,.76Z" fill="#f2b3c1"></path>
      <path d="M509.25,342.09l-.38-.09c-.21-.07-.36-.27-.38-.49-.02-.23-.23-1.08-1.9-2.25-.06-.04-1.58-1.07-1.84-2.91v-.06s0-.06,0-.06c0,0,0-2.24-5.97-4.16l-.2-.06-1.33-2.66,.35-2.76-.51,.36c-.04,1.15-.42,5.61-3.5,5.85l-.54,.04v-.54c0-.74-.18-2.85-1.01-3.65h0c-.31-.3-.52-.61-.66-.93-.45-1.1-.32-2.16,.37-2.99l3.53-3.76s1.3-1.53,4.26-2.02c.02,0,3.46-.7,6.17-2.06l4.01-1.65s3.94-1.86,5.99-3.23l7.77-6.84,.23,.03c3.99,.6,8.42,2.59,13.18,5.91l.32,.22-.19,.51-.14,.11-12.19,8.12s-4.38,3.7-6.42,6.43c-.02,.02-.94,1.22-2.51,5.26-.08,.23-2.15,5.96-3.62,7.42l-2.89,2.89Zm-.48-.93s0,0,0,0h0Zm-3.03-4.91c.22,1.36,1.4,2.18,1.41,2.18,1.25,.87,1.83,1.65,2.11,2.23l2.17-2.17c1.08-1.09,2.81-5.47,3.39-7.06,1.65-4.24,2.61-5.47,2.65-5.52,2.11-2.81,6.43-6.46,6.62-6.62l11.64-7.76c-4.31-2.93-8.32-4.71-11.93-5.3l-7.47,6.57c-2.16,1.45-6.03,3.27-6.2,3.35l-4,1.65c-2.8,1.4-6.26,2.1-6.41,2.13-2.58,.43-3.68,1.69-3.69,1.7l-3.52,3.76c-.44,.52-.51,1.19-.2,1.95,.08,.19,.22,.39,.43,.59h0c.96,.94,1.21,2.78,1.28,3.75,2-.77,2.06-4.95,2.06-5v-.26l1.54-1.1c.22-.15,.5-.17,.73-.03,.23,.13,.35,.39,.32,.65l-.4,3.22,1.01,2.02c6.17,2.03,6.47,4.53,6.46,5.06Z" fill="#002346"></path>
    </g>
    <g>
      <g>
        <path d="M664.47,341.42l61.5,2.1,6.28-84.62c.02-.27-.19-.51-.46-.52l-78.89-3c-.3-.01-.54,.25-.5,.55l12.08,85.48Z" fill="#FFCF88"></path>
        <path d="M726.43,344.04l-62.4-2.14-12.14-85.89c-.04-.29,.05-.58,.24-.8s.5-.33,.77-.32l78.89,3c.27,.01,.52,.13,.7,.33,.18,.2,.27,.46,.25,.73l-6.31,85.1Zm-61.52-3.11l60.6,2.07,6.24-84.14-78.88-2.98,12.04,85.04Z" fill="#002346"></path>
      </g>
      <g>
        <path d="M655.91,349.82l8.46-8.3c.06-.06,.09-.15,.08-.23l-11.84-83.37c-.02-.14-.15-.25-.29-.23l-3.01,.24c-.15,.01-.26,.14-.25,.29l6.39,91.43c.02,.23,.3,.34,.47,.18Z" fill="#FFCF88"></path>
        <path d="M655.72,350.4c-.09,0-.19-.02-.28-.05-.29-.11-.48-.36-.5-.67l-6.39-91.43c-.03-.42,.29-.79,.71-.83l3.01-.24c.39-.02,.77,.26,.83,.66l11.84,83.37c.03,.25-.05,.49-.23,.66l-8.46,8.3c-.15,.15-.34,.22-.54,.22Zm-.16-.94s0,0,0,0h0Zm-5.99-91.06l6.34,90.72,8.03-7.88-11.79-83.05-2.58,.21Zm14.45,82.76h0s0,0,0,0Z" fill="#002346"></path>
      </g>
      <g>
        <path d="M725.97,343.52l-9.82,9.35-60.54-2.64s-.07-.06-.04-.09l8.89-8.73,61.5,2.1Z" fill="#FFCF88"></path>
        <path d="M716.34,353.39l-61.08-2.66-.28-.65,.25-.29,9.04-8.88,62.9,2.15-10.84,10.32Zm-59.68-3.6l59.3,2.58,8.8-8.39-60.09-2.06-8.01,7.86Z" fill="#002346"></path>
      </g>
    </g>
    <path d="M683.34,257.65c-.23,0-.43-.17-.46-.4l-3.3-23.35c-.04-.26,.14-.49,.4-.53,.26-.04,.49,.14,.53,.4l3.3,23.35c.04,.26-.14,.49-.4,.53-.02,0-.04,0-.07,0Z" fill="#002346"></path>
    <g>
      <g>
        <path d="M700.71,334.41l-8.9,12.77c-.09,.13-.29,.09-.33-.06l-22.89-83.91c-.09-.33,.1-.67,.42-.77l3.92-1.27,27.76,73.24Z" fill="#fff"></path>
        <path d="M691.67,347.76s-.08,0-.12-.01c-.26-.05-.47-.23-.54-.49l-22.89-83.91c-.16-.59,.17-1.19,.75-1.38l4.38-1.41,28.03,73.93-9.04,12.99c-.13,.19-.34,.29-.56,.29Zm-19.02-85.97l-3.47,1.12c-.07,.02-.11,.1-.09,.17l22.71,83.26,8.36-12-27.5-72.55Z" fill="#002346"></path>
      </g>
      <g>
        <g>
          <path d="M760.14,331.83l-9.85,13.29-58.13,2.32c-.23,0-.37-.25-.24-.44l8.8-12.63,59.28-2.79c.14,0,.22,.15,.14,.26Z" fill="#fff"></path>
          <path d="M692.14,347.93c-.29,0-.55-.15-.68-.41-.14-.26-.12-.57,.04-.82l8.94-12.84,59.53-2.8c.27,0,.5,.12,.62,.35,.12,.23,.1,.5-.05,.71l-9.99,13.48h-.24s-58.13,2.33-58.13,2.33c0,0-.02,0-.03,0Zm8.84-13.08l-8.4,12.07,57.45-2.29,9.28-12.52-58.33,2.75Zm58.75-3.32s0,0,0,0h0Z" fill="#002346"></path>
        </g>
        <g>
          <path d="M729.04,256.73l-56.64,.46c-.44,0-.75,.45-.59,.86l28.9,76.31,59.55-2.8s.06-.04,.05-.08l-30.67-74.35c-.1-.24-.33-.4-.59-.39Z" fill="#fff"></path>
          <path d="M700.37,334.87l-.13-.34-28.9-76.31c-.13-.35-.08-.74,.13-1.05,.21-.31,.56-.49,.93-.49l56.64-.46c.42-.02,.88,.27,1.06,.7l30.77,74.59-.28,.49-.31,.04-59.91,2.82Zm28.67-77.64l-56.64,.46c-.06,0-.1,.04-.11,.06-.01,.02-.04,.07-.01,.13l28.78,75.97,58.55-2.76-30.43-73.77c-.02-.05-.07-.08-.13-.08h0Z" fill="#002346"></path>
        </g>
      </g>
    </g>
    <path d="M716.61,260.28c-.12,0-.24-.04-.33-.14-.23-.23-15.35-17.89-18.38-21.42-.17-.2-.15-.49,.05-.66,.2-.17,.49-.15,.66,.05,6.2,7.24,18.02,21.03,18.34,21.38,.17,.19,.17,.48-.02,.66-.09,.09-.21,.13-.33,.13Z" fill="#002346"></path>
    <path d="M688.32,260.28c-.2,0-.38-.13-.44-.32l-6.31-19.41c-3.25-8.36-1.98-10.88-1.83-11.14,.13-.22,.42-.29,.64-.16,.22,.13,.29,.41,.17,.63-.03,.06-1.17,2.46,1.9,10.35l6.32,19.43c.08,.25-.05,.51-.3,.59-.05,.02-.1,.02-.14,.02Z" fill="#002346"></path>
    <path d="M668.21,261c-.06,0-.11,0-.17-.03-.25-.09-.38-.37-.29-.62l10.37-27.94c.07-.22,.76-2.33,1.58-3.01,.21-.17,.51-.14,.68,.07,.17,.21,.14,.51-.07,.68-.46,.38-1.03,1.78-1.28,2.58l-10.38,27.97c-.07,.2-.26,.32-.45,.32Z" fill="#002346"></path>
    <g>
      <g>
        <path d="M511.78,371.58l-7.06-3.87s-.05,.02-.03,.04l4.99,4.53-46.06-32.03,12.63,7.95-9.12-7.95,44.66,31.33Z" fill="#fff"></path>
        <path d="M509.39,372.7l-46.06-32.03,.55-.83,7.18,4.52-4.27-3.72,.62-.79,44.66,31.33-.53,.85-3.55-1.95,2.03,1.84-.62,.78Zm-33.23-24.33l27.9,19.4,.46-.67-29.91-20.98,1.96,1.71-.41,.55Z" fill="#002346"></path>
      </g>
      <g>
        <path d="M511.78,371.58l-17.54,69.91-19.56,3.22c-.13,.02-.23-.11-.18-.24l35.17-72.2-4.99-4.53s0-.06,.03-.04l7.06,3.87Z" fill="#fff"></path>
        <path d="M474.65,445.22c-.21,0-.41-.1-.53-.27-.15-.2-.17-.47-.06-.69l35-71.86-5.04-4.58,.51-.76,.42,.21,7.4,4.06-17.71,70.61-19.88,3.27s-.07,0-.11,0Zm.3-.52h0s0,0,0,0Zm33.03-74.63l2.3,2.09-35.05,71.95,18.6-3.06,17.36-69.22-3.22-1.76Z" fill="#002346"></path>
      </g>
      <g>
        <path d="M509.67,372.29l-35.28,72.44s-.05,.03-.07,.02l-45.55-32.47,34.84-72.02,46.06,32.03Z" fill="#fff"></path>
        <path d="M474.26,445.29l-.23-.14-45.9-32.72,35.28-72.93,46.9,32.61-35.57,73.03-.48,.14Zm-44.86-33.18l44.77,31.91,34.86-71.57-45.23-31.46-34.4,71.11Z" fill="#002346"></path>
      </g>
    </g>
    <path d="M479.74,353.35c-.06,0-.13-.01-.19-.04-.24-.1-.34-.38-.24-.62l4.68-10.52c3.56-7.35,7.5-8.86,7.67-8.92,.24-.09,.51,.04,.6,.28,.09,.24-.04,.51-.28,.6-.07,.03-3.79,1.52-7.14,8.44l-4.67,10.51c-.08,.17-.25,.28-.43,.28Z" fill="#002346"></path>
    <path d="M486.77,354.37c-.05,0-.11,0-.16-.03-.24-.09-.37-.36-.28-.6l5.58-15.04c.09-.24,.36-.37,.6-.28,.24,.09,.37,.36,.28,.6l-5.58,15.04c-.07,.19-.25,.31-.44,.31Z" fill="#002346"></path>
    <path d="M483.6,352.3c-.08,0-.16-.02-.23-.06-.22-.13-.3-.42-.17-.64l8.12-13.94c.13-.22,.42-.3,.64-.17,.22,.13,.3,.42,.17,.64l-8.12,13.94c-.09,.15-.24,.23-.4,.23Z" fill="#002346"></path>
    <path d="M498.57,331.48s6.31,1.64,6.66,4.79c0,0,.23,1.64,1.64,2.57,0,0,1.99,.82,2.46,3.39,0,0,.12,8.77,2.46,12.98l-6.35-10.63s-.66-5.04-4.17-7.61l-2.6-1.56s-.56-1.83-.09-3.93Z" fill="#002346"></path>
    <g>
      <path d="M502.66,345.4s-2.34-.23-2.34-2.34c0,0-2.81,.23-2.57-2.81,0,0-2.34,.23-3.51-1.17,0,0-1.87,.94-2.57-1.64,0,0-.23-3.04,.47-4.68,0,0,.7-1.4,1.64-2.1l2.55-2.06,1.46-2.37c.27-.44,.88-.55,1.27-.2,.58,.52,1.12,1.48,.4,3.11-.26,.6-.43,1.24-.53,1.89-.18,1.14-.68,2.44-.54,3.7l2.56-3.3c.23-.37,.66-.56,1.08-.46,.79,.18,1.8,.82,.87,2.97l-1.17,3.27v3.04s1.4,0,.94,5.14Z" fill="#f2b3c1"></path>
      <path d="M503.11,345.94l-.5-.05c-.88-.09-2.48-.7-2.75-2.35-.49-.05-1.25-.22-1.84-.8-.49-.49-.75-1.15-.78-1.98-.77-.02-2.17-.18-3.14-1.1-.35,.09-.9,.16-1.46-.09-.68-.31-1.17-.98-1.45-2-.03-.22-.25-3.27,.49-5,.04-.09,.78-1.54,1.8-2.31l2.47-2,1.41-2.3c.21-.34,.56-.57,.96-.63,.39-.06,.78,.06,1.07,.32,.58,.51,1.41,1.68,.52,3.69-.23,.52-.39,1.1-.5,1.76-.06,.37-.15,.76-.24,1.15-.07,.29-.14,.58-.19,.88l1.56-2.02c.31-.51,.96-.78,1.59-.64,.67,.15,1.16,.51,1.42,1.02,.33,.66,.27,1.55-.2,2.64l-1.13,3.16v2.62c.08,.05,.16,.12,.25,.22,.7,.77,.93,2.56,.68,5.3l-.05,.5Zm-2.29-3.43v.54c0,1.1,.83,1.55,1.38,1.73,.25-3.62-.55-4.04-.56-4.04h-.5l.08-.49,.03-3.21,1.17-3.27c.35-.82,.43-1.44,.24-1.82-.12-.24-.38-.41-.75-.5-.22-.05-.43,.04-.55,.23l-3.35,4.32-.14-1.23c-.11-.95,.12-1.91,.32-2.75,.09-.37,.17-.73,.23-1.08,.12-.75,.3-1.41,.57-2.01,.48-1.09,.39-1.95-.28-2.54-.1-.09-.21-.08-.26-.08-.1,.02-.2,.08-.25,.17l-1.57,2.5-2.55,2.06c-.7,.53-1.32,1.58-1.5,1.94-.63,1.48-.42,4.39-.42,4.41,.18,.62,.48,1.07,.87,1.25,.47,.22,.98-.02,.99-.02l.35-.17,.25,.3c.98,1.18,3.06,.99,3.07,.99l.59-.06-.04,.59c-.06,.79,.1,1.37,.48,1.75,.59,.58,1.54,.52,1.55,.52l.54-.05Z" fill="#002346"></path>
    </g>
    <g>
      <path d="M495.64,321.31l-3.51,3.74c-.74,.89-.54,1.88-.29,2.48,.12,.29,.32,.54,.54,.76,1.16,1.13,1.16,4.01,1.16,4.01,3.04-.23,3.04-5.61,3.04-5.61" fill="#f2b3c1"></path>
      <path d="M493.54,332.8c-.12,0-.25-.05-.34-.13-.1-.09-.16-.23-.16-.37,0-.74-.18-2.85-1-3.65-.31-.3-.52-.61-.66-.93-.45-1.1-.32-2.16,.37-2.99l3.53-3.76c.19-.2,.51-.21,.71-.02,.2,.19,.21,.51,.02,.71l-3.51,3.74c-.44,.52-.51,1.19-.2,1.95,.08,.19,.22,.39,.43,.59,.96,.94,1.21,2.78,1.28,3.75,2-.77,2.06-4.95,2.06-5,0-.28,.22-.5,.5-.5s.5,.22,.5,.5c0,.24-.04,5.84-3.5,6.11-.01,0-.03,0-.04,0Zm.5-.5h0Z" fill="#002346"></path>
    </g>
    <g>
      <ellipse cx="598.3" cy="169.44" rx="3.62" ry="5.38" fill="#f2b3c1"></ellipse>
      <path d="M598.3,175.32c-2.27,0-4.12-2.64-4.12-5.88s1.85-5.88,4.12-5.88,4.12,2.64,4.12,5.88-1.85,5.88-4.12,5.88Zm0-10.76c-1.72,0-3.12,2.19-3.12,4.88s1.4,4.88,3.12,4.88,3.12-2.19,3.12-4.88-1.4-4.88-3.12-4.88Z" fill="#002346"></path>
    </g>
    <g>
      <path d="M576.31,149.51c3.04-2.75,6.27-4.54,8.44-5.56,1.28-.6,2.61-1.07,3.98-1.42l26.17-6.65c1.96-.56,3.81-1,5.55-1.34l-2.04-2.87s-6.31-8.65-21.04-4.68c0,0-17.28,3.26-21.05,22.52Z" fill="#fbe493"></path>
      <path d="M575.53,150.89l.29-1.47c3.79-19.36,21.27-22.88,21.45-22.91,14.86-4.01,21.48,4.78,21.54,4.87l2.5,3.51-.76,.15c-1.75,.34-3.6,.78-5.51,1.33l-26.19,6.66c-1.35,.34-2.66,.81-3.89,1.39-2.14,1-5.32,2.77-8.31,5.47l-1.11,1.01Zm29.15-24.43c-2.12,0-4.52,.29-7.19,1.02-.2,.04-16.15,3.27-20.37,20.68,2.73-2.24,5.48-3.75,7.41-4.65,1.29-.6,2.66-1.09,4.07-1.45l26.17-6.65c1.65-.47,3.27-.87,4.82-1.19l-1.6-2.25c-.05-.06-4.17-5.5-13.31-5.5Z" fill="#002346"></path>
    </g>
    <path d="M573.28,258.44c-.26,0-.48-.2-.5-.46l-2.02-27.51c-.02-.28,.19-.52,.46-.54,.26-.02,.52,.19,.54,.46l2.02,27.51c.02,.28-.19,.52-.46,.54-.01,0-.03,0-.04,0Z" fill="#002346"></path>
    <path d="M645.3,249.56c-.27,0-.49-.21-.5-.48l-.38-11.58c0-.28,.21-.51,.48-.52,0,0,.01,0,.02,0,.27,0,.49,.21,.5,.48l.38,11.58c0,.28-.21,.51-.48,.52,0,0-.01,0-.02,0Z" fill="#002346"></path>
    <path d="M655.35,354.08c-.12,0-.24-.04-.34-.13l-22.43-20.68c-.21-.23-4.37-4.85-9.14-1.83-.23,.15-.54,.08-.69-.15-.15-.23-.08-.54,.15-.69,5.49-3.48,10.34,1.92,10.39,1.97l22.39,20.64c.2,.19,.22,.5,.03,.71-.1,.11-.23,.16-.37,.16Z" fill="#002346"></path>
    <path d="M638.05,338.67c-.28,0-.5-.22-.5-.5v-10.31c0-.28,.22-.5,.5-.5s.5,.22,.5,.5v10.31c0,.28-.22,.5-.5,.5Z" fill="#002346"></path>
    <path d="M614.43,400.14c-.2,0-.39-.12-.46-.32-.1-.26,.02-.55,.28-.65l24.07-9.52-23.04-19.8c-.21-.18-.23-.5-.05-.71,.18-.21,.5-.23,.71-.05l23.67,20.34c.13,.11,.2,.29,.17,.46s-.15,.32-.31,.38l-24.84,9.82c-.06,.02-.12,.04-.18,.04Z" fill="#002346"></path>
    <path d="M612.51,426.58c-.17,0-.33-.08-.42-.23-.15-.23-.08-.54,.15-.69,9.59-6.12,29.45-11.25,29.65-11.3,.27-.07,.54,.09,.61,.36s-.09,.54-.36,.61c-.2,.05-19.9,5.14-29.36,11.17-.08,.05-.18,.08-.27,.08Z" fill="#002346"></path>
    <path d="M590,470.52s-.04,0-.06,0c-4.22-.47-7.86-3.43-10.83-8.81-2.84-5.14-4.21-11.15-3.95-17.36l1.25-30.47c.03-7.53,4.71-9.72,4.91-9.8,.25-.11,.55,0,.66,.25,.11,.25,0,.55-.25,.66-.18,.08-4.29,2.04-4.32,8.92l-1.25,30.49c-.25,6.03,1.08,11.85,3.83,16.83,2.8,5.08,6.19,7.87,10.06,8.3,.27,.03,.47,.28,.44,.55-.03,.26-.25,.45-.5,.45Z" fill="#002346"></path>
    <path d="M636.7,550.82c-4.11,0-7.75-.67-10.58-1.43-2.61-.7-5.24-1.81-8.28-3.48-4.16-2.28-9.09-3.26-9.14-3.27-8.57-1.56-11.49-3.43-11.61-3.51-.23-.15-.29-.46-.14-.69,.15-.23,.46-.29,.69-.15,.03,.02,2.92,1.85,11.24,3.36,.21,.04,5.14,1.01,9.43,3.37,2.96,1.63,5.52,2.71,8.05,3.39,5.08,1.37,12.88,2.42,21.15-.32,.26-.09,.54,.06,.63,.32,.09,.26-.06,.54-.32,.63-3.89,1.29-7.68,1.76-11.14,1.76Z" fill="#002346"></path>
    <path d="M713.88,163.72c-.08,0-.17-.02-.25-.07l-9.42-5.36c-.24-.14-.32-.44-.19-.68,.14-.24,.44-.32,.68-.19l9.42,5.36c.24,.14,.32,.44,.19,.68-.09,.16-.26,.25-.43,.25Z" fill="#002346"></path>
    <path d="M710.88,166.72c-.08,0-.16-.02-.23-.06l-10.16-5.32c-.25-.13-.34-.43-.21-.67,.13-.24,.43-.34,.67-.21l10.16,5.32c.25,.13,.34,.43,.21,.67-.09,.17-.26,.27-.44,.27Z" fill="#002346"></path>
    <path d="M706.8,169.76c-.08,0-.17-.02-.25-.07l-8.42-4.85c-.24-.14-.32-.44-.18-.68,.14-.24,.45-.32,.68-.18l8.42,4.85c.24,.14,.32,.44,.18,.68-.09,.16-.26,.25-.43,.25Z" fill="#002346"></path>
    <path d="M701.45,171.97c-.34,0-.58-.05-.6-.05-.27-.06-.44-.32-.39-.59,.06-.27,.33-.44,.59-.39h0s1.19,.22,1.97-.57c.2-.2,.51-.2,.71,0s.2,.51,0,.71c-.75,.75-1.68,.89-2.28,.89Z" fill="#002346"></path>
    <path d="M494.24,339.58h0c-.28,0-.5-.23-.5-.5,0-.18,.05-4.47,1.37-7.78,.1-.26,.4-.38,.65-.28,.26,.1,.38,.39,.28,.65-1.25,3.13-1.3,7.38-1.3,7.42,0,.27-.23,.5-.5,.5Z" fill="#002346"></path>
    <g>
      <path d="M497.75,340.25s-.37-2.53,.63-5.53" fill="#f2b3c1"></path>
      <path d="M497.26,340.32c-.02-.11-.38-2.68,.65-5.76l.95,.32c-.95,2.84-.61,5.27-.61,5.3l-.99,.15Z" fill="#002346"></path>
    </g>
  </g>
  <path d="M363.3,400.14s-.04,0-.06,0c-.27-.03-.47-.28-.43-.56,3.04-24.16,.03-44.1,0-44.29-.04-.27,.14-.53,.42-.57,.27-.04,.53,.14,.57,.42,.03,.2,3.06,20.28,0,44.57-.03,.25-.25,.44-.5,.44Z" fill="#002346"></path>
</svg>
